<?xml version="1.0" standalone="no"?>
<!DOCTYPE svg PUBLIC "-//W3C//DTD SVG 20010904//EN"
 "http://www.w3.org/TR/2001/REC-SVG-20010904/DTD/svg10.dtd">
<svg version="1.0" xmlns="http://www.w3.org/2000/svg"
 width="3200.000000pt" height="1800.000000pt" viewBox="0 0 3200.000000 1800.000000"
 preserveAspectRatio="xMidYMid meet">

<g transform="translate(0.000000,1800.000000) scale(0.100000,-0.100000)"
fill="#000000" stroke="none">
<path d="M0 9000 l0 -9000 2268 0 2267 0 82 203 c75 184 128 325 329 872 157
426 327 780 502 1044 190 288 358 453 605 595 94 54 566 286 582 286 1 0 8
-44 14 -97 7 -54 14 -109 17 -123 4 -23 -2 -29 -63 -59 -198 -97 -545 -382
-702 -575 -133 -165 -287 -410 -431 -689 -144 -280 -221 -461 -385 -917 -43
-118 -108 -288 -145 -378 l-68 -162 887 2 886 3 12 100 c60 509 92 1032 100
1641 6 449 -3 673 -38 989 -75 677 -232 1261 -594 2215 -110 291 -150 389
-300 740 -79 185 -176 419 -215 521 -40 101 -96 245 -125 319 -112 285 -126
382 -70 491 21 40 115 138 169 177 l46 33 -30 -63 c-24 -51 -30 -76 -30 -131
0 -80 15 -115 67 -154 32 -25 45 -28 112 -28 42 0 92 4 111 9 33 8 34 7 18 -9
-15 -16 -12 -26 49 -154 527 -1109 846 -2206 1008 -3466 115 -902 124 -1895
24 -2785 -10 -96 -28 -230 -39 -298 -11 -67 -20 -129 -20 -137 0 -13 1014 -15
8566 -15 l8567 0 -7 68 c-31 329 -27 1019 9 1592 31 475 52 689 114 1120 23
157 53 375 66 485 70 550 229 1246 437 1900 170 535 452 1241 703 1757 46 94
48 97 87 103 22 4 54 20 72 35 30 28 31 31 30 109 -1 44 2 79 6 76 3 -2 22
-34 40 -70 29 -58 35 -79 38 -157 11 -226 -87 -559 -316 -1078 -124 -282 -167
-392 -274 -710 -241 -719 -435 -1459 -538 -2060 -164 -962 -184 -1873 -64
-2943 13 -120 24 -220 24 -222 0 -3 466 -5 1035 -5 l1034 0 -33 78 c-118 274
-308 608 -600 1049 -213 324 -307 455 -507 705 l-122 153 -141 48 c-292 101
-376 120 -578 133 l-118 7 0 37 c0 72 51 571 66 637 4 23 6 22 102 -26 235
-117 554 -223 1062 -353 107 -27 275 -72 373 -99 247 -69 577 -150 830 -204
577 -124 789 -217 1023 -450 218 -217 401 -495 1041 -1575 l80 -135 1497 -3
1496 -2 0 9000 0 9000 -5867 0 -5866 0 81 -82 c91 -93 136 -153 207 -278 91
-159 137 -210 310 -341 182 -138 274 -259 354 -464 22 -55 51 -145 65 -200 49
-193 89 -283 223 -490 174 -271 228 -412 274 -706 14 -92 37 -186 79 -313 70
-214 77 -243 96 -401 19 -167 18 -276 -7 -402 -18 -94 -20 -125 -13 -233 12
-190 10 -288 -9 -358 -52 -195 -178 -392 -295 -461 -29 -17 -54 -31 -56 -31
-2 0 5 29 15 65 10 36 23 110 29 165 26 220 -37 546 -122 637 -34 37 -39 16
-12 -55 72 -191 88 -279 88 -477 0 -124 -4 -165 -23 -234 -40 -152 -24 -138
-366 -311 -240 -122 -460 -221 -655 -297 -260 -101 -764 -265 -821 -267 -16
-1 -29 -4 -29 -7 0 -4 -9 -9 -20 -12 -16 -4 -20 0 -20 21 0 19 -3 23 -9 13 -6
-10 -10 -10 -13 -1 -2 8 -8 7 -18 -6 -9 -11 -10 -15 -2 -10 6 4 12 2 12 -3 0
-14 -17 -14 -25 -1 -9 15 -31 12 -49 -6 -9 -8 -16 -11 -16 -5 0 5 5 13 10 16
29 18 -12 75 -54 75 -14 0 -14 -5 1 -36 14 -29 15 -37 4 -43 -8 -5 -11 -13 -7
-19 3 -6 1 -14 -5 -18 -7 -4 -9 -3 -6 3 9 15 -16 23 -34 12 -8 -5 -9 -9 -4 -9
6 0 -5 -8 -22 -16 -18 -9 -33 -23 -33 -30 0 -16 -16 -19 -24 -5 -3 5 0 14 7
19 14 12 23 87 9 78 -5 -3 -7 7 -4 22 3 15 7 22 9 15 6 -17 53 5 53 25 0 10
-8 13 -30 10 -16 -3 -28 -3 -25 0 8 9 -24 32 -45 32 -19 0 -22 -4 -18 -34 2
-19 1 -33 -3 -30 -4 2 -10 -10 -14 -27 -6 -24 -3 -34 9 -41 9 -5 16 -16 16
-24 0 -27 -40 9 -50 45 -10 36 3 77 21 66 5 -4 9 2 9 12 -1 16 -45 52 -113 90
-22 13 -22 13 3 14 14 1 31 1 38 0 18 -3 15 13 -8 42 -11 14 -20 36 -20 50 0
13 -9 32 -20 42 -11 10 -20 24 -20 32 0 7 -9 22 -20 33 -11 11 -20 27 -20 36
0 14 -2 14 -15 0 -8 -8 -15 -23 -15 -33 0 -15 -2 -16 -10 -3 -5 8 -10 10 -10
4 0 -6 3 -14 8 -18 7 -7 8 -11 11 -37 0 -6 7 -9 15 -6 15 6 26 -12 26 -44 0
-12 -10 -23 -26 -29 -16 -6 -24 -16 -21 -24 5 -14 -10 -36 -25 -36 -4 0 -8 12
-8 27 0 14 3 23 7 20 3 -4 12 -2 20 4 10 9 10 15 2 25 -12 15 -44 20 -35 6 3
-5 -2 -9 -10 -9 -10 0 -11 4 -4 11 17 17 11 48 -10 53 -16 4 -19 11 -14 27 4
11 11 23 15 24 5 2 7 7 4 12 -3 4 5 6 17 2 17 -4 20 -2 15 11 -3 9 -2 17 3 19
17 6 15 41 -2 43 -12 2 -18 -3 -18 -15 0 -25 -22 -30 -43 -8 -16 16 -14 22 6
19 4 0 7 4 7 9 0 6 -7 10 -15 10 -8 0 -15 5 -15 11 0 5 5 7 10 4 5 -3 10 1 10
10 0 9 5 13 10 10 6 -3 10 1 10 11 0 13 3 14 15 4 8 -7 15 -18 15 -24 0 -6 11
-11 24 -11 21 0 23 3 14 24 -5 16 -5 27 1 31 10 6 -7 25 -38 45 -10 5 -12 4
-7 -3 4 -7 2 -12 -5 -12 -7 0 -24 -14 -39 -30 -21 -24 -29 -27 -33 -16 -3 8 0
20 8 26 8 6 11 19 8 28 -6 15 -5 15 11 3 13 -11 20 -11 28 -3 9 9 8 12 -4 12
-9 0 -24 7 -33 17 -10 9 -20 12 -23 7 -4 -5 -11 -9 -17 -9 -17 1 -57 26 -51
32 3 4 15 -2 26 -12 20 -18 20 -17 20 8 0 15 -5 27 -11 27 -6 0 -8 9 -4 21 5
14 3 20 -7 18 -28 -3 -36 2 -31 21 6 22 -12 28 -20 8 -3 -7 -6 -1 -6 13 -1 14
-4 29 -7 32 -9 9 -14 55 -16 150 -2 75 -4 81 -38 78 -12 -1 -11 1 2 9 15 9 15
13 2 38 -7 15 -14 33 -14 40 0 6 -7 12 -16 12 -10 0 -14 5 -10 16 4 10 2 13
-6 8 -8 -5 -9 -2 -5 10 5 14 3 17 -8 12 -8 -3 -15 -1 -15 4 0 6 5 10 10 10 6
0 10 11 10 25 0 16 -6 25 -15 25 -18 0 -18 1 -5 34 7 19 6 25 -3 23 -7 -1 -12
9 -12 22 0 15 -8 27 -23 32 -12 5 -22 11 -22 13 0 3 7 3 15 0 11 -5 13 -2 9
10 -3 9 -13 15 -21 14 -28 -5 -37 26 -17 56 16 26 19 27 25 10 12 -29 10 -34
-8 -34 -13 0 -14 -3 -5 -12 9 -9 15 -8 27 8 31 39 37 54 21 54 -8 0 -20 14
-28 30 -12 29 -46 39 -41 12 2 -7 -2 -12 -8 -12 -6 0 -9 6 -7 12 3 7 -3 21
-13 31 -13 14 -25 17 -48 12 -17 -4 -31 -13 -31 -21 0 -15 -12 -19 -23 -7 -4
3 2 13 13 20 18 13 19 16 5 29 -18 18 -20 44 -4 44 15 0 3 59 -16 80 -17 19
-20 40 -5 40 6 0 10 9 10 20 0 11 7 23 15 26 8 4 12 11 8 18 -3 6 -1 6 8 -1
21 -21 35 -15 34 15 0 15 -4 25 -10 22 -5 -3 -9 -10 -9 -16 1 -6 -8 -9 -20 -7
-27 5 -62 74 -51 100 14 31 13 41 -1 47 -8 3 -14 13 -14 21 0 9 5 13 10 10 22
-14 30 8 9 26 -12 10 -25 16 -30 14 -4 -3 -11 0 -15 6 -4 8 3 9 25 4 25 -5 31
-3 31 10 0 11 -5 15 -14 12 -9 -4 -17 2 -21 15 -6 15 -13 19 -35 16 -16 -2
-27 -1 -25 3 3 3 -7 19 -22 35 -15 17 -21 30 -14 32 16 5 14 29 -5 36 -8 3
-13 10 -9 15 3 5 1 13 -5 16 -20 12 9 36 30 25 28 -15 37 -12 14 4 -18 14 -18
15 -1 21 9 4 17 13 17 21 0 8 7 14 15 14 11 0 4 12 -20 37 -19 20 -35 44 -35
54 0 10 -5 21 -10 24 -5 3 -10 -3 -10 -14 0 -11 -5 -23 -10 -26 -5 -3 -10 0
-10 8 0 8 -7 17 -15 21 -8 3 -15 13 -15 23 1 22 38 68 48 59 4 -4 -1 -13 -11
-20 -9 -7 -17 -18 -17 -25 0 -14 43 -8 48 7 2 7 10 12 17 12 7 0 20 16 29 35
10 20 21 33 27 30 5 -4 9 -2 9 4 0 10 -39 27 -54 23 -4 -2 -14 2 -20 8 -7 5
-16 7 -19 3 -4 -3 -7 -1 -7 6 0 21 33 71 51 76 10 3 23 13 31 22 12 15 11 15
-9 4 -19 -10 -23 -9 -23 4 0 8 7 15 15 15 8 0 15 5 15 10 0 6 -5 10 -11 10 -5
0 -7 5 -3 11 4 8 -1 9 -17 4 -18 -5 -20 -4 -9 4 8 5 11 13 7 17 -4 4 -2 12 3
19 6 8 6 12 -3 12 -6 1 -27 4 -46 9 -32 7 -34 6 -29 -14 4 -14 2 -20 -5 -15
-5 3 -20 -6 -32 -21 l-21 -27 -11 36 c-6 19 -7 33 -2 29 5 -3 9 2 9 11 0 9 5
13 10 10 6 -3 10 -2 10 4 0 6 7 8 15 5 10 -4 15 0 15 10 0 9 7 19 15 22 10 4
13 14 9 29 -4 16 1 30 15 44 11 11 18 27 15 36 -8 19 -19 19 -38 0 -13 -14
-17 -13 -33 4 -10 10 -29 21 -43 23 -15 2 -26 11 -29 23 -2 11 -7 22 -11 25
-4 3 -10 15 -14 27 -6 18 -4 22 8 17 18 -7 21 7 5 23 -6 6 -8 17 -4 24 6 9 11
8 21 -5 14 -20 34 -14 34 10 0 8 5 14 10 14 16 0 11 19 -11 41 l-20 20 -24
-25 c-31 -33 -35 -33 -35 4 0 17 5 30 13 30 18 0 60 48 52 60 -3 5 -2 10 4 10
6 0 8 6 5 14 -3 8 -1 17 5 21 19 11 13 35 -6 29 -10 -4 -2 4 17 17 19 13 38
22 43 21 4 -1 7 4 7 12 0 30 -80 23 -104 -9 -12 -16 -25 -10 -42 20 -6 11 -15
18 -19 17 -4 -2 -11 2 -16 9 -5 8 3 23 22 41 34 33 36 44 8 53 -11 4 -24 18
-29 31 -5 13 -16 24 -24 24 -10 0 -13 6 -10 15 5 11 10 13 19 5 9 -8 17 -6 28
5 9 8 22 14 29 13 8 -2 12 4 10 15 -2 10 2 25 8 32 9 11 7 15 -14 21 -30 7
-29 5 -16 38 7 21 6 26 -5 26 -8 0 -15 -4 -15 -9 0 -5 -9 -7 -19 -4 -24 6 -34
60 -13 68 11 4 12 8 2 20 -7 8 -10 15 -6 15 3 0 -3 9 -14 20 -11 11 -25 20
-31 20 -6 0 -9 6 -6 13 2 6 15 11 29 9 18 -2 27 4 36 23 16 36 16 36 -23 32
-31 -4 -33 -2 -24 14 10 20 -4 28 -16 9 -4 -6 -11 -8 -16 -4 -5 3 -7 9 -4 14
3 5 1 11 -5 15 -7 4 -7 12 0 25 18 33 12 50 -20 57 -27 5 -44 33 -20 33 6 0
10 7 10 15 0 9 11 21 25 27 30 14 31 20 5 43 -11 10 -20 25 -20 33 0 8 -12 31
-27 50 -25 33 -25 35 -5 30 14 -4 26 1 39 18 10 13 23 24 30 24 7 0 13 5 13
11 0 5 5 7 10 4 6 -3 10 0 10 8 0 16 -34 42 -65 50 -16 4 -17 5 -3 6 10 0 20
12 24 26 4 17 13 25 28 26 20 0 20 1 -2 10 -13 5 -27 7 -32 4 -7 -5 -24 23
-22 36 0 3 -6 6 -14 6 -10 0 -11 -4 -5 -10 7 -7 6 -17 -1 -31 -6 -12 -11 -22
-10 -23 7 -10 0 -23 -8 -18 -5 3 -10 1 -10 -4 0 -14 -10 -14 -30 -1 -13 9 -13
11 0 20 11 7 11 10 2 10 -7 0 -24 -11 -38 -25 -30 -30 -74 -44 -74 -24 1 21
36 59 55 59 11 0 15 5 11 15 -3 9 0 15 10 15 8 0 12 5 9 10 -3 6 3 14 15 18
19 7 18 9 -14 22 -20 7 -37 17 -37 22 -5 30 -3 65 4 61 4 -2 7 0 7 4 0 5 10
13 23 18 15 7 21 17 19 32 -4 30 37 35 61 8 10 -11 16 -14 12 -7 -3 6 -3 12 2
12 4 0 17 7 27 15 20 15 20 15 0 30 -19 15 -15 23 21 39 16 7 -16 25 -33 18
-13 -4 -12 -7 4 -12 17 -6 17 -8 -6 -15 -14 -4 -27 -10 -30 -14 -12 -15 -50
-31 -50 -21 0 18 -53 5 -56 -13 -1 -10 1 -15 5 -13 4 3 13 -4 20 -16 10 -16
10 -19 -1 -12 -9 6 -9 2 2 -12 8 -10 11 -16 6 -12 -5 4 -18 2 -30 -4 -11 -6
-18 -7 -14 -3 4 4 1 17 -7 27 -7 11 -11 28 -8 37 4 12 3 13 -5 2 -7 -10 -11
-10 -17 -1 -4 6 -4 14 -1 17 3 3 1 12 -5 19 -12 15 -4 48 10 40 4 -3 7 5 6 19
-4 30 30 64 47 47 27 -27 86 -1 67 29 -7 12 -10 12 -18 1 -6 -11 -10 -10 -16
5 -5 10 -7 22 -6 27 2 8 -28 35 -41 36 -4 0 -8 -10 -10 -22 -3 -24 -43 -35
-55 -15 -3 6 -1 7 5 3 7 -4 12 -2 12 3 0 6 6 10 13 8 17 -3 15 26 -3 30 -13 4
-13 3 0 -7 13 -10 12 -11 -3 -6 -10 3 -21 6 -23 6 -3 0 -2 5 1 10 3 6 -1 10
-9 10 -8 0 -18 5 -21 10 -4 6 -1 9 7 8 8 -2 13 7 13 25 -1 15 3 27 7 27 4 0 7
5 5 11 -1 6 6 13 16 14 13 2 17 -1 13 -11 -3 -8 1 -14 11 -14 14 0 14 3 1 22
-8 12 -22 22 -31 24 -39 5 -94 28 -114 47 -13 11 -23 17 -23 12 0 -4 8 -14 17
-21 15 -11 15 -13 3 -14 -23 0 -60 29 -60 47 0 13 3 13 15 3 13 -10 15 -9 15
12 0 20 8 27 40 38 33 11 42 11 57 -1 9 -8 14 -9 10 -3 -4 7 0 14 8 18 8 3 15
12 15 21 0 8 5 15 11 15 8 0 8 4 1 13 -6 7 -9 23 -5 35 4 16 1 22 -11 22 -10
0 -14 -5 -11 -10 9 -14 -10 -36 -48 -55 -38 -19 -37 -19 -37 10 0 26 -14 33
-25 15 -4 -6 -1 -18 7 -27 11 -15 11 -16 -5 -10 -10 4 -21 7 -23 7 -2 0 -4 9
-4 20 0 13 -5 18 -15 14 -10 -4 -15 0 -15 11 0 9 -4 14 -9 11 -5 -4 -20 -2
-33 3 -21 9 -20 10 13 10 22 1 44 9 58 22 23 21 24 21 53 4 25 -14 32 -15 39
-4 12 20 11 26 -6 33 -17 6 -21 56 -5 56 6 0 10 4 10 10 0 5 -3 9 -7 9 -23 -4
-33 3 -33 21 0 20 -7 20 -2695 20 -2596 0 -2696 -1 -2713 -18 -10 -10 -21 -26
-25 -34 -6 -16 -131 -102 -229 -157 -155 -87 -307 -300 -308 -432 0 -55 -14
-75 -60 -83 -45 -8 -252 -92 -310 -125 -25 -14 -65 -41 -90 -59 -24 -19 -55
-38 -68 -43 -83 -32 -183 -145 -247 -280 -62 -131 -97 -319 -60 -319 8 0 15 6
15 13 0 8 3 8 9 -2 5 -8 16 -11 25 -8 13 5 15 11 7 26 -8 14 -7 22 4 31 12 10
15 10 15 -2 0 -8 11 -24 26 -37 16 -14 23 -28 19 -40 -3 -12 0 -21 10 -25 30
-11 14 -24 -26 -21 -24 1 -49 11 -63 24 -51 48 -71 -4 -71 -184 0 -76 3 -99
13 -97 7 1 15 -5 18 -13 4 -8 14 -15 24 -15 24 0 36 -18 21 -33 -8 -8 -11 -8
-11 1 0 7 -7 12 -15 12 -8 0 -15 -4 -15 -10 0 -5 -7 -10 -16 -10 -11 0 -14 6
-9 23 6 21 6 21 -9 3 -18 -23 -21 -72 -5 -82 8 -4 7 -9 -2 -16 -11 -7 -11 -8
1 -6 8 1 27 -6 42 -16 27 -17 27 -19 12 -48 -9 -17 -11 -27 -5 -24 7 5 11 -3
11 -19 0 -22 -4 -25 -25 -21 -18 3 -29 -1 -38 -15 -17 -27 -26 -24 -43 17 -15
36 -16 36 -30 15 -9 -12 -26 -21 -40 -21 -21 0 -23 2 -12 19 7 11 16 17 20 15
4 -3 8 3 8 13 0 13 -12 6 -45 -29 -48 -50 -59 -93 -30 -122 13 -13 13 -15 -5
-21 -26 -8 -26 -22 0 -30 11 -3 19 -9 19 -13 -3 -20 3 -30 21 -35 22 -6 41 18
33 41 -3 7 5 12 21 12 14 0 29 7 34 16 14 25 24 0 12 -30 -5 -15 -21 -31 -35
-38 -14 -6 -25 -20 -25 -30 0 -11 -4 -16 -10 -13 -5 3 -10 -1 -10 -9 0 -8 9
-20 20 -26 16 -9 18 -8 14 5 -4 9 -3 15 2 14 5 -2 21 4 37 11 31 15 46 8 28
-14 -7 -8 -13 -25 -15 -38 -5 -45 -28 -98 -42 -98 -11 0 -12 4 -3 18 9 15 8
24 -6 45 -17 26 -55 38 -55 17 0 -20 -48 -11 -53 10 -3 11 -13 20 -22 20 -9 0
-15 6 -12 13 2 7 17 11 35 10 37 -3 47 9 30 37 -17 26 -37 25 -68 -3 -14 -13
-33 -26 -44 -30 -14 -6 -16 -10 -6 -22 6 -7 18 -11 26 -8 10 4 12 0 8 -11 -3
-9 -11 -13 -18 -9 -21 14 -35 11 -29 -5 9 -24 25 -32 48 -26 15 4 17 3 6 -4
-11 -8 -9 -15 14 -36 19 -18 23 -26 13 -26 -9 0 -21 7 -28 15 -21 25 -50 19
-50 -11 0 -20 -4 -25 -22 -22 -15 2 -22 11 -23 28 -3 33 43 172 61 186 7 6 12
13 9 16 -3 2 11 42 30 88 20 46 34 87 33 91 -8 22 -120 -152 -147 -228 -52
-143 -63 -222 -58 -415 4 -157 6 -173 25 -188 14 -12 18 -24 15 -44 -5 -26 -4
-27 15 -17 26 14 37 48 22 66 -10 12 -9 15 8 15 11 0 22 6 25 13 2 6 8 -9 12
-35 4 -26 4 -51 1 -57 -4 -5 4 -13 16 -17 17 -5 27 0 45 22 18 23 25 26 35 16
6 -6 20 -12 29 -12 23 0 49 -38 49 -71 0 -22 -6 -28 -27 -33 -60 -11 -115 -5
-137 15 -11 11 -29 18 -38 16 -9 -3 -25 4 -34 14 -22 25 -41 24 -54 -2 -7 -11
-14 -18 -17 -16 -2 3 0 15 7 26 19 36 -6 23 -42 -21 -61 -74 -115 -198 -139
-313 -18 -89 -17 -336 1 -365 7 -11 10 -8 10 13 0 15 5 27 11 27 5 0 7 -5 4
-11 -8 -11 25 -40 37 -33 13 8 9 24 -6 24 -10 0 -14 12 -13 38 0 20 -3 59 -8
86 -7 40 -5 50 8 58 21 11 22 34 2 42 -9 3 -12 12 -8 22 3 9 7 28 8 43 3 47 5
50 20 45 11 -5 12 -11 5 -27 -10 -21 -10 -21 6 1 9 12 22 22 29 22 8 0 16 6
18 13 4 8 6 7 6 -3 0 -8 -6 -24 -14 -34 -8 -11 -15 -30 -15 -42 0 -17 4 -21
20 -17 14 4 20 0 20 -11 0 -9 -12 -19 -27 -22 -25 -7 -25 -8 -8 -20 18 -13 17
-14 -8 -14 -35 0 -45 -25 -22 -50 13 -14 15 -23 7 -32 -16 -20 8 -60 28 -48
24 15 30 12 30 -15 0 -14 -4 -25 -9 -25 -12 0 -23 -39 -22 -75 1 -22 -1 -26
-8 -16 -5 8 -7 20 -5 26 3 7 -1 15 -9 18 -18 7 -30 -40 -13 -47 6 -2 -8 -5
-31 -5 -35 -1 -43 -4 -43 -20 0 -10 8 -22 18 -26 16 -6 16 -7 0 -16 -12 -7
-15 -19 -11 -51 8 -76 12 -88 33 -88 11 0 20 -4 20 -9 0 -5 6 -16 14 -24 12
-12 10 -25 -19 -98 -54 -134 -69 -242 -61 -454 3 -99 9 -191 12 -204 l7 -24
-32 19 c-102 60 -198 194 -245 344 -50 158 -53 329 -11 669 11 91 14 204 13
410 -2 281 -2 288 24 382 14 53 49 146 76 205 63 135 69 160 82 314 18 205 38
270 131 412 61 95 114 210 154 338 184 584 205 626 430 870 47 52 125 154 173
225 99 150 171 243 257 334 108 114 280 249 408 321 31 17 57 34 57 36 0 2
-2657 4 -5905 4 l-5905 0 0 -9000z m17677 8898 c-3 -8 -6 -5 -6 6 -1 11 2 17
5 13 3 -3 4 -12 1 -19z m-177 -29 c0 -5 -4 -9 -10 -9 -5 0 -10 7 -10 16 0 8 5
12 10 9 6 -3 10 -10 10 -16z m348 -491 c-3 -7 -11 -13 -18 -13 -7 0 -15 6 -17
13 -3 7 4 12 17 12 13 0 20 -5 18 -12z m-46 -23 c13 -17 9 -25 -9 -18 -16 6
-16 5 -4 -10 7 -9 9 -17 3 -17 -16 0 -35 29 -28 45 6 16 26 16 38 0z m3 -135
c3 -5 1 -10 -4 -10 -6 0 -11 5 -11 10 0 6 2 10 4 10 3 0 8 -4 11 -10z m225 1
c0 -5 -7 -11 -14 -14 -10 -4 -13 -1 -9 9 6 15 23 19 23 5z m-6563 -153 c-3 -7
-5 -2 -5 12 0 14 2 19 5 13 2 -7 2 -19 0 -25z m-147 8 c0 -3 -4 -8 -10 -11 -5
-3 -10 -1 -10 4 0 6 5 11 10 11 6 0 10 -2 10 -4z m6460 -6 c0 -5 -5 -10 -11
-10 -5 0 -7 5 -4 10 3 6 8 10 11 10 2 0 4 -4 4 -10z m-30 -40 c0 -5 -4 -10
-10 -10 -5 0 -10 5 -10 10 0 6 5 10 10 10 6 0 10 -4 10 -10z m-6323 -57 c-4
-3 -2 -12 5 -20 16 -19 4 -27 -21 -12 -15 10 -17 16 -9 26 6 7 15 13 21 13 6
0 7 -3 4 -7z m6571 -81 c2 -7 -6 -12 -22 -12 -14 0 -26 5 -26 11 0 6 -8 8 -19
4 -11 -3 -22 -1 -26 5 -4 7 10 9 41 7 26 -1 49 -8 52 -15z m-104 -94 c-10 -36
-25 -51 -38 -38 -8 8 -7 13 4 20 8 5 16 14 16 20 2 18 4 20 15 20 6 0 8 -9 3
-22z m63 6 c-3 -3 -12 -4 -19 -1 -8 3 -5 6 6 6 11 1 17 -2 13 -5z m-41 -87
c11 -11 -19 -8 -36 3 -12 8 -10 9 7 7 12 -2 26 -6 29 -10z m54 -66 c0 -5 -9
-11 -20 -14 -13 -3 -20 0 -20 9 0 8 9 14 20 14 11 0 20 -4 20 -9z m-6993 -23
c-3 -8 -6 -5 -6 6 -1 11 2 17 5 13 3 -3 4 -12 1 -19z m108 -24 c-1 -16 -3 -27
-6 -24 -3 3 -12 0 -20 -6 -15 -12 -69 -27 -69 -19 0 11 76 84 85 81 6 -1 10
-16 10 -32z m-128 -26 c-3 -8 -6 -5 -6 6 -1 11 2 17 5 13 3 -3 4 -12 1 -19z
m916 9 c-2 -4 -5 -7 -8 -7 -3 0 -9 0 -15 0 -5 0 -10 4 -10 9 0 5 8 8 18 7 9
-2 16 -6 15 -9z m6010 3 c16 0 -14 -20 -30 -20 -7 0 -13 7 -13 16 0 11 5 14
16 10 9 -3 21 -6 27 -6z m-6707 -68 c6 -12 19 -31 29 -42 15 -17 16 -20 3 -20
-9 0 -21 7 -28 15 -7 8 -25 15 -41 15 -36 0 -46 16 -23 41 22 24 45 21 60 -9z
m-76 -72 c0 -5 -4 -10 -10 -10 -5 0 -10 5 -10 10 0 6 5 10 10 10 6 0 10 -4 10
-10z m75 0 c3 -5 -1 -10 -10 -10 -9 0 -13 5 -10 10 3 6 8 10 10 10 2 0 7 -4
10 -10z m6895 -60 c0 -5 -6 -10 -14 -10 -8 0 -18 5 -21 10 -3 6 3 10 14 10 12
0 21 -4 21 -10z m-7040 -81 c0 -19 -24 -48 -40 -49 -8 0 -11 50 -4 61 11 19
44 9 44 -12z m654 -10 c-3 -5 -10 -7 -15 -3 -5 3 -7 10 -3 15 3 5 10 7 15 3 5
-3 7 -10 3 -15z m153 -25 c-3 -3 -12 -4 -19 -1 -8 3 -5 6 6 6 11 1 17 -2 13
-5z m-381 -78 c19 -19 18 -36 -2 -36 -8 0 -12 5 -9 10 4 6 -8 10 -27 11 -18 1
-25 3 -15 6 9 2 17 9 17 14 0 14 20 11 36 -5z m-508 -26 c-13 -20 -28 -27 -28
-12 0 10 22 32 32 32 5 0 3 -9 -4 -20z m207 10 c3 -5 -1 -10 -9 -10 -9 0 -16
5 -16 10 0 6 4 10 9 10 6 0 13 -4 16 -10z m-125 -20 c0 -5 -4 -10 -9 -10 -6 0
-13 5 -16 10 -3 6 1 10 9 10 9 0 16 -4 16 -10z m143 -10 c11 0 17 -6 14 -12
-2 -8 -15 -12 -30 -10 -18 2 -29 -2 -33 -13 -4 -9 -13 -14 -20 -11 -7 3 -16 1
-20 -5 -4 -6 -11 -6 -20 2 -11 9 -11 15 4 35 14 21 23 24 52 19 19 -2 43 -5
53 -5z m144 -47 c-9 -9 -19 -14 -23 -11 -10 10 6 28 24 28 15 0 15 -1 -1 -17z
m6703 -4 c-7 -11 -14 -18 -17 -15 -3 3 0 12 7 21 18 21 23 19 10 -6z m60 11
c0 -5 -9 -10 -20 -10 -11 0 -20 5 -20 10 0 6 9 10 20 10 11 0 20 -4 20 -10z
m-7027 -70 c3 -13 0 -20 -9 -20 -8 0 -14 9 -14 20 0 11 4 20 9 20 5 0 11 -9
14 -20z m7027 -58 c0 -12 -8 -18 -25 -20 -29 -2 -32 6 -7 24 23 18 32 17 32
-4z m-6920 -6 c0 -2 -7 -6 -15 -10 -8 -3 -15 -1 -15 4 0 6 7 10 15 10 8 0 15
-2 15 -4z m440 -38 c0 -14 -30 -48 -42 -48 -13 0 -10 18 8 45 16 24 34 25 34
3z m-405 -48 c7 -11 -11 -40 -25 -40 -4 0 -5 11 -2 25 5 26 16 32 27 15z
m6855 -40 c8 -15 7 -21 -7 -28 -30 -15 -44 -4 -31 24 14 29 24 30 38 4z
m-6006 1 c10 -15 -4 -39 -25 -44 -22 -6 -22 -6 -7 28 12 26 23 32 32 16z
m-284 -26 c0 -8 -4 -15 -10 -15 -5 0 -10 7 -10 15 0 8 5 15 10 15 6 0 10 -7
10 -15z m6425 -5 c2 -3 -6 -6 -17 -5 -12 1 -23 6 -25 12 -4 12 34 6 42 -7z
m-7188 -16 c-3 -4 -14 -3 -24 0 -15 6 -15 8 -3 16 16 10 39 -4 27 -16z m-46
-47 c-8 -8 -11 -5 -11 9 0 27 14 41 18 19 2 -9 -1 -22 -7 -28z m844 33 c3 -5
1 -10 -4 -10 -6 0 -11 5 -11 10 0 6 2 10 4 10 3 0 8 -4 11 -10z m-335 -4 c0
-11 -19 -15 -25 -6 -3 5 1 10 9 10 9 0 16 -2 16 -4z m306 -61 c-7 -11 -20 -20
-27 -20 -18 0 -12 36 9 52 22 18 36 -5 18 -32z m6378 0 c-4 -10 -11 -8 -30 8
-17 15 -21 23 -12 28 16 10 48 -19 42 -36z m-7254 19 c0 -8 -4 -12 -10 -9 -5
3 -10 10 -10 16 0 5 5 9 10 9 6 0 10 -7 10 -16z m660 1 c0 -10 -10 -15 -27
-15 -27 1 -27 1 -9 15 25 19 36 19 36 0z m315 -96 c5 -6 5 -13 -1 -19 -14 -14
-62 11 -56 28 4 13 39 8 57 -9z m6313 -68 c2 -7 -5 -15 -17 -18 -12 -3 -21 -9
-21 -14 0 -5 -4 -9 -10 -9 -6 0 -6 9 0 24 5 13 6 27 2 30 -3 4 5 5 18 3 13 -2
26 -9 28 -16z m-7048 -26 c-7 -9 -15 -13 -19 -10 -3 3 1 10 9 15 21 14 24 12
10 -5z m135 -5 c3 -5 1 -10 -4 -10 -6 0 -11 5 -11 10 0 6 2 10 4 10 3 0 8 -4
11 -10z m-285 -42 c0 -25 -27 -11 -32 17 -4 20 -3 22 14 12 10 -7 18 -20 18
-29z m7196 9 c4 -4 0 -9 -9 -13 -9 -3 -13 -12 -10 -20 3 -8 -1 -14 -9 -14 -7
0 -19 -9 -26 -20 -14 -24 -32 -26 -32 -5 0 8 3 15 8 15 4 0 16 15 26 34 17 31
36 40 52 23z m-6541 -37 c3 -5 1 -10 -4 -10 -6 0 -11 5 -11 10 0 6 2 10 4 10
3 0 8 -4 11 -10z m-481 -45 c3 -8 12 -15 20 -15 17 0 28 -24 20 -44 -7 -18
-34 -9 -34 10 0 8 -10 14 -25 14 -29 0 -30 3 -13 30 15 24 24 25 32 5z m-551
-35 c-3 -11 0 -20 6 -20 6 0 11 -4 11 -10 0 -5 -7 -10 -15 -10 -10 0 -15 10
-15 30 0 17 4 30 9 30 5 0 7 -9 4 -20z m135 -15 c0 -25 -19 -38 -41 -29 -8 3
-14 11 -14 19 0 8 6 15 14 15 7 0 13 7 13 15 0 8 6 12 14 9 7 -3 14 -16 14
-29z m7516 -6 c-7 -13 -31 -11 -40 2 -9 16 18 30 33 17 7 -6 10 -14 7 -19z
m-7604 11 c0 -5 -5 -10 -11 -10 -5 0 -7 5 -4 10 3 6 8 10 11 10 2 0 4 -4 4
-10z m455 -28 c-7 -7 -55 19 -50 28 4 6 15 3 30 -7 13 -10 22 -19 20 -21z
m160 29 c3 -5 1 -12 -5 -16 -5 -3 -10 1 -10 9 0 18 6 21 15 7z m-709 -58 c-10
-10 -19 5 -10 18 6 11 8 11 12 0 2 -7 1 -15 -2 -18z m107 11 c3 -4 1 -16 -5
-28 -7 -11 -14 -34 -16 -51 -2 -16 -9 -33 -15 -37 -12 -7 5 -13 27 -9 22 4 47
-12 42 -26 -4 -11 -2 -13 9 -10 17 7 31 -11 18 -24 -6 -6 -22 -3 -42 7 -17 9
-38 13 -47 10 -13 -5 -13 -9 1 -30 15 -23 15 -25 -4 -31 -12 -3 -21 -11 -21
-16 0 -5 -4 -9 -10 -9 -5 0 -10 9 -10 20 0 11 5 20 12 20 6 0 3 6 -7 14 -20
14 -51 6 -66 -16 -9 -13 -18 47 -15 99 2 51 8 58 36 43 12 -7 20 -8 17 -3 -3
4 1 17 9 28 12 16 18 17 33 8 16 -10 19 -8 25 18 5 28 16 36 29 23z m175 -63
c1 -28 -3 -41 -15 -45 -23 -9 -26 -3 -13 43 14 52 26 53 28 2z m911 20 c9 -6
10 -10 2 -16 -16 -9 -44 2 -36 15 8 12 16 12 34 1z m-314 -51 c4 -6 -6 -10
-22 -10 -22 0 -25 2 -13 10 19 12 27 12 35 0z m6718 -5 c1 -5 -8 -11 -20 -13
-15 -2 -23 2 -23 11 0 16 39 18 43 2z m-7257 -32 c-10 -10 -19 5 -10 18 6 11
8 11 12 0 2 -7 1 -15 -2 -18z m-32 -13 c29 -11 35 -44 10 -54 -9 -3 -28 1 -44
10 -26 16 -26 18 -11 35 18 22 14 21 45 9z m-102 -52 c-7 -7 -12 -8 -12 -2 0
14 12 26 19 19 2 -3 -1 -11 -7 -17z m7528 -4 c0 -8 -7 -14 -15 -14 -8 0 -15 9
-15 20 0 13 5 18 15 14 8 -4 15 -12 15 -20z m-7560 -24 c-8 -5 -11 -10 -5 -10
5 0 4 -5 -2 -11 -6 -6 -22 -7 -38 -3 l-28 7 24 13 c29 16 73 20 49 4z m1060
-10 c0 -5 -7 -10 -15 -10 -8 0 -15 5 -15 10 0 6 7 10 15 10 8 0 15 -4 15 -10z
m6455 -10 c-3 -5 -12 -7 -20 -3 -21 7 -19 13 6 13 11 0 18 -4 14 -10z m-7035
-39 c0 -5 -7 -11 -15 -15 -15 -5 -20 5 -8 17 9 10 23 9 23 -2z m360 -1 c0 -5
-10 -10 -22 -10 -19 0 -20 2 -8 10 19 13 30 13 30 0z m-34 -47 c-10 -10 -19 5
-10 18 6 11 8 11 12 0 2 -7 1 -15 -2 -18z m6734 12 c0 -8 -7 -15 -15 -15 -13
0 -14 3 -3 15 16 18 18 18 18 0z m-6733 -97 c-3 -8 -6 -5 -6 6 -1 11 2 17 5
13 3 -3 4 -12 1 -19z m-197 -72 c0 -3 -4 -8 -10 -11 -5 -3 -10 -1 -10 4 0 6 5
11 10 11 6 0 10 -2 10 -4z m-820 -20 c0 -8 -16 -30 -36 -50 -30 -30 -34 -39
-24 -51 21 -25 4 -48 -30 -41 -17 3 -30 2 -30 -2 0 -4 -9 -13 -20 -20 -19 -12
-19 -11 -2 25 21 46 49 76 63 67 8 -4 7 0 0 14 -14 27 -14 32 2 32 8 0 22 9
32 20 21 23 45 26 45 6z m7849 -22 c-14 -18 -24 -11 -15 11 3 9 11 13 16 10 8
-5 7 -11 -1 -21z m-6965 1 c3 -8 1 -15 -3 -15 -5 0 -11 7 -15 15 -3 8 -1 15 3
15 5 0 11 -7 15 -15z m-639 -19 l22 -24 -27 -24 c-27 -24 -43 -28 -56 -15 -4
4 0 7 8 7 19 0 30 34 16 48 -10 10 -3 32 9 32 3 0 16 -11 28 -24z m-182 -25
c22 -22 22 -22 2 -36 -11 -8 -28 -22 -37 -31 -16 -16 -19 -16 -43 0 -26 17
-26 36 1 36 14 0 17 7 17 41 0 22 34 17 60 -10z m97 -2 c0 -4 -9 -9 -20 -12
-15 -4 -20 0 -20 13 0 31 39 29 40 -1z m786 1 c-3 -38 -10 -45 -30 -25 -25 25
-21 55 8 55 20 0 24 -4 22 -30z m6871 22 c13 -8 7 -52 -7 -52 -9 0 -20 25 -20
46 0 16 9 18 27 6z m-7183 -28 c4 -10 1 -14 -6 -12 -15 5 -23 28 -10 28 5 0
13 -7 16 -16z m242 -33 c-19 -18 -29 -22 -37 -14 -15 15 24 55 47 46 13 -5 12
-10 -10 -32z m7001 23 c-3 -3 -12 -4 -19 -1 -8 3 -5 6 6 6 11 1 17 -2 13 -5z
m-7487 -18 c0 -3 -4 -8 -10 -11 -5 -3 -10 -1 -10 4 0 6 5 11 10 11 6 0 10 -2
10 -4z m299 -10 c18 -22 -2 -26 -23 -5 -16 16 -17 19 -4 19 9 0 21 -6 27 -14z
m571 -28 c0 -19 -18 -43 -25 -36 -9 9 4 48 16 48 5 0 9 -6 9 -12z m-1090 -13
c0 -2 -7 -5 -15 -9 -9 -3 -15 0 -15 9 0 9 6 12 15 9 8 -4 15 -7 15 -9z m370 7
c0 -13 -39 -46 -46 -39 -9 9 16 47 31 47 8 0 15 -4 15 -8z m-308 -32 c-9 -16
-24 -30 -32 -29 -10 0 -11 2 -2 6 6 2 12 16 12 29 0 17 6 24 20 24 18 0 18 -1
2 -30z m7438 26 c0 -11 -19 -15 -25 -6 -3 5 1 10 9 10 9 0 16 -2 16 -4z
m-7280 -30 c0 -8 -4 -17 -9 -20 -10 -7 -23 19 -14 28 11 11 23 6 23 -8z m-432
-33 c-16 -20 -30 -5 -17 19 9 16 13 18 20 7 4 -8 3 -19 -3 -26z m-55 7 c7 -26
-27 -47 -49 -30 -16 15 -10 28 20 40 11 5 22 9 22 9 1 1 4 -8 7 -19z m442 10
c3 -5 1 -10 -4 -10 -6 0 -11 5 -11 10 0 6 2 10 4 10 3 0 8 -4 11 -10z m865
-20 c0 -5 -7 -10 -15 -10 -8 0 -15 5 -15 10 0 6 7 10 15 10 8 0 15 -4 15 -10z
m-766 -45 c8 -30 1 -45 -21 -45 -11 0 -14 6 -9 23 3 12 6 28 6 35 0 22 18 13
24 -13z m-454 0 c0 -8 -2 -15 -4 -15 -2 0 -6 7 -10 15 -3 8 -1 15 4 15 6 0 10
-7 10 -15z m790 -9 c0 -11 -19 -15 -25 -6 -3 5 1 10 9 10 9 0 16 -2 16 -4z
m-600 -16 c0 -5 -8 -10 -17 -10 -15 0 -16 2 -3 10 19 12 20 12 20 0z m1030
-47 c0 -34 -1 -36 -16 -21 -13 13 -14 19 -2 37 7 11 14 21 15 21 2 0 3 -17 3
-37z m-1184 16 c3 -6 0 -18 -9 -26 -18 -18 -37 -9 -37 18 0 21 34 27 46 8z
m44 -20 c0 -5 -6 -9 -13 -9 -8 0 -14 6 -14 14 0 8 6 12 14 9 7 -3 13 -9 13
-14z m64 -5 c10 -26 -4 -37 -25 -18 -15 13 -17 19 -7 26 19 11 25 10 32 -8z
m-88 -62 c-15 -15 -16 -15 -16 5 0 12 6 23 13 26 19 6 21 -13 3 -31z m7844
-29 c0 -19 -3 -24 -10 -17 -6 6 -8 18 -4 27 9 24 14 21 14 -10z m55 -34 c10
-15 -1 -23 -20 -15 -9 3 -13 10 -10 16 8 13 22 13 30 -1z m-7979 -47 c-15 -15
-16 -14 -16 10 0 14 6 28 13 31 19 6 21 -23 3 -41z m514 7 c0 -5 -6 -6 -14 -3
-7 3 -16 -2 -19 -10 -9 -22 -27 -20 -27 4 0 24 30 42 47 28 7 -6 13 -14 13
-19z m377 25 c-3 -3 -12 -4 -19 -1 -8 3 -5 6 6 6 11 1 17 -2 13 -5z m-617 -48
c0 -8 -8 -13 -17 -11 -10 2 -21 4 -25 4 -21 2 -5 21 17 21 15 0 25 -6 25 -14z
m276 -25 c-7 -11 -46 -16 -46 -6 0 3 6 14 12 25 11 17 15 18 26 6 8 -8 11 -19
8 -25z m380 4 c25 -12 26 -15 10 -21 -20 -8 -47 5 -54 24 -5 16 10 15 44 -3z
m-696 -66 c0 -5 -7 -9 -16 -9 -9 0 -23 -8 -30 -17 -8 -11 -13 -13 -14 -5 0 18
33 49 48 44 6 -2 12 -8 12 -13z m7720 -39 c-12 -22 -30 -18 -30 6 0 8 9 14 20
14 18 0 19 -3 10 -20z m-7843 -22 c-3 -8 -6 -5 -6 6 -1 11 2 17 5 13 3 -3 4
-12 1 -19z m8 -28 c3 -5 1 -10 -4 -10 -6 0 -11 5 -11 10 0 6 2 10 4 10 3 0 8
-4 11 -10z m-175 -81 c0 -3 -13 -20 -30 -37 -16 -18 -30 -39 -30 -47 0 -8 -4
-15 -10 -15 -16 0 -12 57 5 64 17 6 20 42 5 51 -5 3 -10 18 -10 32 l0 26 35
-34 c19 -19 35 -37 35 -40z m287 49 c-3 -8 -6 -5 -6 6 -1 11 2 17 5 13 3 -3 4
-12 1 -19z m-393 -133 c-4 -8 -8 -15 -10 -15 -2 0 -4 7 -4 15 0 8 4 15 10 15
5 0 7 -7 4 -15z m1016 -15 c7 -14 5 -20 -7 -24 -18 -7 -33 9 -33 36 0 22 26
13 40 -12z m-360 -20 c0 -5 -4 -10 -9 -10 -6 0 -13 5 -16 10 -3 6 1 10 9 10 9
0 16 -4 16 -10z m567 4 c-3 -3 -12 -4 -19 -1 -8 3 -5 6 6 6 11 1 17 -2 13 -5z
m7130 0 c-3 -3 -12 -4 -19 -1 -8 3 -5 6 6 6 11 1 17 -2 13 -5z m-8044 -20 c9
-4 17 -11 17 -16 0 -5 14 -14 30 -19 35 -13 38 -24 10 -39 -15 -8 -21 -6 -30
10 -6 11 -20 20 -30 20 -11 0 -20 7 -20 15 0 8 -7 15 -15 15 -8 0 -15 4 -15 8
0 14 13 23 24 17 6 -3 19 -8 29 -11z m867 -33 c0 -17 -18 -21 -24 -6 -3 9 0
15 9 15 8 0 15 -4 15 -9z m-775 -131 c3 -5 1 -10 -4 -10 -6 0 -11 5 -11 10 0
6 2 10 4 10 3 0 8 -4 11 -10z m645 -10 c0 -5 -7 -7 -15 -4 -8 4 -12 10 -9 15
6 11 24 2 24 -11z m-930 -60 c0 -11 -47 -40 -65 -40 -8 0 -15 5 -15 10 0 6 4
10 10 10 5 0 12 11 16 24 5 22 9 24 30 14 13 -6 24 -14 24 -18z m67 -2 c-3 -7
-5 -2 -5 12 0 14 2 19 5 13 2 -7 2 -19 0 -25z m1068 2 c-3 -5 -11 -10 -16 -10
-6 0 -7 5 -4 10 3 6 11 10 16 10 6 0 7 -4 4 -10z m-645 -35 c0 -8 -9 -15 -20
-15 -11 0 -20 7 -20 15 0 8 9 15 20 15 11 0 20 -7 20 -15z m67 -27 c-3 -8 -6
-5 -6 6 -1 11 2 17 5 13 3 -3 4 -12 1 -19z m-162 2 c-3 -5 -10 -10 -16 -10 -5
0 -9 5 -9 10 0 6 7 10 16 10 8 0 12 -4 9 -10z m297 -39 c4 -33 -15 -37 -32 -6
-12 23 -12 28 0 35 18 11 27 3 32 -29z m7438 -39 c-7 -13 -9 -8 -9 23 0 35 1
37 10 17 6 -15 5 -30 -1 -40z m-8201 -5 c-11 -25 -16 -28 -36 -26 -12 1 -3 32
15 52 22 24 36 6 21 -26z m427 17 c-3 -9 -6 -21 -6 -27 0 -6 -7 -4 -16 5 -18
18 -11 38 13 38 10 0 13 -6 9 -16z m67 -9 c-7 -21 -13 -19 -13 6 0 11 4 18 10
14 5 -3 7 -12 3 -20z m401 2 c15 -6 16 -10 6 -22 -16 -19 -30 -19 -30 -1 0 8
-5 16 -12 18 -7 3 -8 10 -4 17 5 7 11 9 15 4 3 -5 14 -13 25 -16z m219 3 c-3
-11 -9 -20 -14 -20 -5 0 -9 9 -9 20 0 11 6 20 14 20 9 0 12 -7 9 -20z m-286
-32 c-3 -7 -5 -2 -5 12 0 14 2 19 5 13 2 -7 2 -19 0 -25z m-197 7 c-11 -13 -9
-20 9 -38 25 -27 27 -52 5 -61 -22 -9 -34 1 -34 29 0 13 -4 26 -9 29 -5 4 -8
14 -6 24 2 9 4 20 4 25 1 4 11 7 22 7 18 0 19 -2 9 -15z m7766 -29 c1 -7 -4
-13 -11 -13 -7 0 -11 7 -10 16 2 9 4 18 4 20 2 8 15 -10 17 -23z m-8176 -10
c0 -8 -4 -18 -10 -21 -5 -3 -10 -4 -10 -1 0 2 -3 11 -6 20 -4 11 -1 16 10 16
9 0 16 -6 16 -14z m8133 -22 c8 -8 -3 -34 -14 -34 -5 0 -9 9 -9 20 0 19 11 26
23 14z m-8375 -38 c2 -9 1 -24 -3 -33 -5 -14 -8 -13 -21 6 -17 24 -12 55 9 49
6 -3 14 -12 15 -22z m1098 9 c10 -8 29 -15 40 -15 23 0 40 -25 24 -35 -11 -7
-40 5 -40 16 0 5 -13 6 -29 3 -21 -4 -30 -2 -35 11 -12 33 8 44 40 20z m7214
-12 c0 -7 -7 -13 -15 -13 -8 0 -15 6 -15 13 0 8 7 14 15 14 8 0 15 -6 15 -14z
m-7812 -25 c-6 -18 -28 -21 -28 -4 0 9 7 16 16 16 9 0 14 -5 12 -12z m585 -27
c17 -2 5 -15 -18 -18 -20 -3 -25 1 -25 17 0 17 3 19 18 11 9 -5 20 -9 25 -10z
m7360 6 c4 3 7 1 7 -5 0 -17 -16 -15 -31 6 -12 15 -12 16 2 5 9 -7 19 -10 22
-6z m-8216 -29 c-3 -8 -6 -5 -6 6 -1 11 2 17 5 13 3 -3 4 -12 1 -19z m237 -9
c44 -52 33 -64 -20 -24 -21 16 -31 31 -28 40 9 22 19 19 48 -16z m-421 15 c9
-9 -4 -34 -18 -34 -17 0 -27 27 -12 34 17 7 23 7 30 0z m603 -2 c17 -11 25
-42 11 -43 -16 -2 -39 1 -56 7 -11 3 -10 8 4 24 20 22 25 23 41 12z m7734 -2
c10 -6 11 -10 3 -10 -7 0 -13 -6 -13 -14 0 -20 -40 -32 -51 -15 -6 10 -2 17
11 23 11 5 20 13 20 18 0 11 11 10 30 -2z m-7254 -15 c-8 -8 -17 -15 -20 -15
-3 0 -3 7 0 15 4 8 13 15 21 15 12 0 12 -2 -1 -15z m-604 -17 c-7 -7 -12 -8
-12 -2 0 14 12 26 19 19 2 -3 -1 -11 -7 -17z m298 -9 c0 -6 6 -9 14 -6 17 7
41 -18 32 -32 -4 -5 2 -11 11 -14 10 -2 -2 -3 -27 -2 -43 1 -45 3 -48 33 -2
18 1 32 7 32 6 0 11 -5 11 -11z m7628 -1 c14 -14 16 -42 3 -34 -5 4 -23 -5
-40 -20 -44 -37 -57 -20 -19 27 34 43 38 45 56 27z m-8308 -8 c0 -5 -4 -10
-10 -10 -5 0 -10 5 -10 10 0 6 5 10 10 10 6 0 10 -4 10 -10z m940 -40 c0 -21
5 -42 12 -46 8 -5 6 -10 -8 -14 -10 -4 -25 -3 -32 3 -9 7 -11 6 -6 -6 6 -16
-18 -19 -32 -4 -4 4 -16 7 -26 7 -18 0 -18 1 2 22 11 12 20 28 20 35 0 7 7 13
15 13 8 0 19 9 25 20 16 29 30 15 30 -30z m-897 20 c8 0 7 -3 -2 -9 -17 -11
-53 -2 -45 11 3 5 13 7 21 4 8 -3 20 -6 26 -6z m-69 -38 c-1 -7 -2 -25 -2 -41
-2 -24 -6 -28 -22 -24 -22 6 -25 19 -10 58 10 26 36 31 34 7z m146 -20 c0 -16
-16 -29 -42 -36 -32 -7 -35 3 -12 39 13 20 20 23 35 14 10 -5 19 -13 19 -17z
m210 -17 c-6 -15 -13 -25 -17 -22 -3 4 0 21 8 38 16 39 24 24 9 -16z m140 25
c0 -5 -2 -10 -4 -10 -3 0 -8 5 -11 10 -3 6 -1 10 4 10 6 0 11 -4 11 -10z
m-554 -44 c20 -20 18 -43 -5 -56 -25 -13 -30 -4 -24 38 6 36 9 38 29 18z
m1027 -67 c5 -18 8 -19 26 -7 26 16 35 6 24 -29 -11 -32 -49 -44 -59 -19 -3 9
-12 16 -20 16 -17 0 -18 32 -2 48 17 17 25 15 31 -9z m-755 -21 c-5 -16 -48
-24 -48 -10 0 11 17 20 38 21 8 1 12 -5 10 -11z m342 -4 c0 -2 -7 -4 -15 -4
-8 0 -15 4 -15 10 0 5 7 7 15 4 8 -4 15 -8 15 -10z m-100 -3 c0 -14 -18 -23
-30 -16 -6 4 -8 11 -5 16 8 12 35 12 35 0z m-423 -37 c-9 -9 -28 6 -21 18 4 6
10 6 17 -1 6 -6 8 -13 4 -17z m463 8 c0 -13 -12 -22 -22 -16 -10 6 -1 24 13
24 5 0 9 -4 9 -8z m307 -14 c34 -43 9 -112 -30 -83 -12 8 -14 15 -8 20 6 3 11
22 11 41 0 35 10 43 27 22z m-373 -24 c7 -19 -1 -34 -19 -34 -8 0 -16 4 -19 9
-9 14 4 41 19 41 7 0 16 -7 19 -16z m64 -32 c2 -7 -3 -12 -12 -12 -9 0 -16 7
-16 16 0 17 22 14 28 -4z m92 8 c0 -5 -7 -10 -16 -10 -8 0 -12 5 -9 10 3 6 10
10 16 10 5 0 9 -4 9 -10z m8020 -10 c0 -5 -5 -10 -11 -10 -5 0 -7 5 -4 10 3 6
8 10 11 10 2 0 4 -4 4 -10z m3140 -4 c69 -15 105 -27 210 -71 65 -28 188 -60
416 -109 66 -14 187 -46 270 -70 82 -24 241 -70 354 -101 113 -32 275 -78 360
-103 85 -24 184 -53 220 -62 36 -10 189 -51 340 -93 151 -42 343 -94 427 -115
l152 -40 163 -164 c90 -89 182 -184 204 -210 47 -54 73 -65 50 -20 -31 59
-110 153 -216 255 -60 59 -110 109 -110 111 0 2 62 -12 138 -32 105 -27 146
-43 176 -66 72 -57 177 -160 228 -223 49 -62 68 -76 68 -50 0 23 -97 154 -157
212 -61 59 -57 64 28 39 71 -21 256 -70 343 -90 39 -9 76 -23 84 -31 8 -8 40
-33 71 -55 31 -22 84 -68 118 -101 61 -60 81 -68 69 -29 -7 22 -95 115 -146
154 -19 15 -32 28 -30 30 3 2 178 0 390 -3 409 -7 370 -3 787 -73 82 -14 239
-43 348 -65 544 -107 462 -99 945 -92 256 4 349 -7 525 -64 290 -94 472 -228
571 -417 13 -27 22 -48 20 -48 -3 0 -17 5 -33 11 -40 16 -215 12 -285 -7 -69
-17 -98 -33 -98 -53 0 -15 11 -14 130 13 80 19 189 20 244 4 82 -25 170 -148
202 -284 12 -52 15 -102 11 -204 -6 -188 -25 -241 -121 -335 -72 -70 -229
-171 -326 -210 -91 -36 -270 -93 -270 -87 0 4 14 34 30 66 29 58 43 156 21
156 -10 0 -27 -39 -37 -85 -27 -119 -138 -218 -338 -300 -60 -25 -111 -44
-112 -42 -2 2 7 32 21 68 31 77 58 205 53 251 -3 31 -4 32 -15 11 -7 -11 -23
-63 -37 -115 -44 -174 -94 -271 -163 -318 -29 -20 -134 -56 -244 -83 l-27 -7
28 68 c39 97 70 230 70 304 -1 55 -2 61 -14 45 -8 -10 -19 -48 -26 -85 -50
-270 -158 -460 -281 -497 -51 -14 -414 -44 -424 -33 -2 2 15 43 39 90 56 111
96 240 96 303 -1 49 -1 50 -15 23 -8 -15 -30 -73 -49 -131 -65 -198 -154 -339
-254 -402 -91 -57 -250 -103 -393 -115 -67 -6 -145 -7 -175 -4 l-53 7 43 48
c75 84 155 274 170 404 l6 50 -21 -40 c-12 -22 -37 -81 -55 -131 -90 -252
-180 -343 -414 -415 -77 -23 -214 -32 -273 -16 l-27 7 58 58 c65 64 137 192
148 263 l7 44 -21 -26 c-12 -15 -38 -58 -58 -95 -55 -105 -90 -150 -140 -185
-129 -88 -390 -148 -744 -168 -155 -9 -406 2 -423 18 -4 5 2 21 15 37 62 76
153 248 174 329 7 27 12 50 10 52 -8 8 -40 -42 -90 -138 -120 -232 -176 -296
-291 -329 -22 -6 -166 -15 -320 -21 -154 -5 -317 -12 -361 -15 l-82 -6 34 68
c19 38 41 101 49 139 16 75 20 245 7 245 -11 0 -29 -75 -42 -169 -28 -200 -93
-298 -225 -336 -40 -12 -266 -34 -347 -35 -15 0 -14 6 7 53 47 102 59 178 60
369 0 159 -5 202 -20 186 -3 -3 -10 -67 -15 -144 -19 -261 -39 -351 -94 -431
-57 -82 -70 -86 -295 -89 -118 -1 -234 -8 -291 -17 -52 -9 -114 -19 -138 -23
l-43 -7 5 34 c32 204 37 256 28 279 l-9 25 -15 -30 c-18 -34 -34 -109 -43
-202 -4 -39 -15 -75 -29 -95 -23 -35 -107 -86 -147 -90 -13 -2 -29 -8 -36 -14
-19 -19 -169 -37 -253 -31 -70 4 -80 8 -110 37 -36 35 -33 51 5 30 32 -17 47
-3 18 17 -12 8 -19 21 -16 29 7 20 20 17 26 -5 3 -14 11 -18 25 -14 11 3 29 0
39 -6 17 -10 17 -10 1 -11 -20 0 -22 -8 -8 -30 8 -13 10 -12 10 3 0 11 8 17
23 17 28 0 47 17 47 42 0 22 -13 23 -43 3 -14 -9 -27 -11 -36 -5 -23 14 45 51
74 40 16 -6 27 -4 39 8 9 9 24 17 33 17 24 0 37 28 29 68 -5 26 -11 35 -21 30
-8 -3 -13 -9 -10 -13 14 -22 -20 -19 -56 5 -33 21 -38 29 -28 41 6 8 9 27 6
43 -5 23 -2 30 13 34 17 4 18 2 9 -14 -12 -23 -6 -35 21 -42 26 -7 58 22 38
34 -10 7 -10 9 -1 9 7 0 12 3 12 8 -3 19 2 25 11 12 8 -13 10 -12 10 3 0 16
-7 18 -45 14 -25 -2 -49 1 -52 6 -3 6 -1 7 5 3 6 -3 20 3 30 14 11 12 26 21
33 20 31 -5 38 2 54 50 10 29 27 57 40 66 49 32 66 117 26 127 -9 3 -4 5 12 6
20 1 27 6 27 21 0 11 3 20 8 21 4 0 16 2 27 5 11 2 74 11 140 19 163 20 189
27 193 49 4 18 -2 19 -87 12 -71 -5 -91 -4 -91 6 0 10 -2 10 -9 -1 -5 -7 -29
-15 -54 -18 -44 -5 -46 -4 -40 17 5 19 3 22 -10 17 -13 -5 -17 -1 -17 14 0 23
-30 24 -38 1 -2 -7 1 -11 8 -10 6 2 19 -8 28 -22 9 -13 11 -21 5 -16 -7 4 -13
2 -13 -3 0 -19 -37 -12 -43 8 -5 20 -54 34 -61 17 -3 -6 -5 3 -3 19 1 18 -3
29 -10 28 -15 -3 -25 25 -11 33 7 4 8 3 4 -4 -4 -7 -2 -12 3 -12 6 0 11 6 11
14 0 8 12 28 26 43 14 15 22 21 18 13 -6 -12 -4 -13 6 -3 11 10 17 10 31 -3
15 -13 17 -13 22 1 6 13 -4 20 -25 16 -12 -2 -9 13 6 34 12 17 15 17 27 4 21
-22 21 -38 -1 -61 -22 -24 -23 -28 -12 -44 9 -14 43 -14 61 0 12 9 13 8 7 -3
-6 -10 -4 -12 11 -7 17 6 20 3 17 -21 -2 -17 -1 -20 2 -8 4 11 10 25 16 32 6
8 3 18 -11 32 -20 20 -16 26 17 22 14 -2 16 18 2 39 -8 13 -10 12 -10 -2 0
-19 5 -22 -66 36 -39 32 -49 63 -23 71 10 4 19 15 19 25 0 25 40 34 56 12 8
-9 14 -24 14 -33 0 -19 24 -42 33 -32 4 3 7 -7 8 -23 1 -29 1 -29 9 5 5 19 6
40 3 47 -2 7 1 21 7 31 10 16 11 16 6 1 -4 -13 0 -17 14 -15 24 4 38 17 19 18
-8 0 -3 6 11 12 14 7 25 19 25 27 0 11 29 21 110 37 105 21 739 114 875 128
145 16 101 41 -54 30 -196 -13 -803 -95 -976 -131 -14 -3 -20 -2 -14 3 25 19
43 73 24 73 -5 0 -7 -8 -3 -17 6 -16 4 -16 -15 1 -12 11 -25 16 -29 13 -4 -4
2 -14 13 -23 10 -8 13 -13 7 -9 -7 3 -13 1 -13 -6 0 -9 -3 -9 -14 0 -10 8 -16
9 -21 1 -3 -5 -11 -10 -17 -10 -6 0 -8 3 -5 7 4 3 2 12 -4 20 -9 10 -8 13 5
13 10 0 14 -5 10 -11 -4 -7 -1 -10 7 -7 9 3 13 17 12 36 -1 19 3 32 10 32 8 0
9 3 1 8 -15 10 -25 42 -13 42 6 0 7 6 3 13 -5 7 0 6 11 -3 10 -8 16 -10 12 -3
-5 7 1 17 14 23 17 10 20 9 14 -1 -9 -14 9 -5 35 17 23 20 88 31 353 64 306
38 377 50 377 61 0 21 -349 -4 -600 -42 -74 -12 -149 -23 -167 -26 -20 -3 -57
4 -100 20 -37 14 -99 35 -138 47 -38 13 -79 27 -90 33 -25 13 -26 13 252 62
112 20 229 45 260 55 l58 20 -85 -5 c-99 -6 -396 -48 -523 -75 l-89 -18 -156
50 c-106 34 -163 58 -177 73 -21 24 -53 40 -70 36 -5 -2 -6 1 -2 6 5 4 14 8
20 8 7 0 13 8 15 18 2 12 -3 17 -17 17 -12 0 -21 -5 -21 -12 0 -6 -9 -2 -21
11 -19 20 -22 21 -38 7 -10 -9 -20 -13 -24 -10 -3 3 -3 -3 0 -15 6 -24 -2 -26
-57 -9 -36 11 -54 28 -32 28 17 0 62 46 62 63 0 15 11 21 32 18 4 0 3 11 -3
25 -12 32 -57 70 -80 66 -26 -4 -45 26 -31 49 16 25 6 42 -19 36 -21 -6 -24 5
-9 33 12 22 -18 83 -37 76 -8 -3 -10 1 -6 11 4 11 2 14 -5 9 -7 -4 -12 -15
-12 -24 -1 -15 -3 -14 -16 3 -8 11 -12 25 -10 32 8 20 -10 24 -27 5 -23 -25
-23 -24 11 -61 29 -32 33 -51 11 -51 -5 0 -9 7 -9 15 0 17 -35 21 -45 5 -3 -5
-16 -10 -29 -10 -12 0 -31 -6 -41 -14 -19 -14 -19 -14 0 -35 10 -12 25 -19 32
-16 8 2 11 0 8 -5 -3 -6 2 -10 11 -10 32 0 7 -11 -36 -15 -23 -2 -51 -7 -61
-10 -16 -5 -17 -2 -9 24 11 39 45 88 72 102 13 7 18 17 15 30 -5 18 8 25 36
20 5 -1 5 13 1 31 -4 18 -7 46 -6 62 1 28 1 29 -17 10 -17 -17 -18 -20 -3 -31
14 -12 14 -14 0 -25 -8 -7 -21 -22 -27 -33 -10 -20 -11 -20 -17 3 -7 26 -12
27 -38 7 -22 -17 -40 -20 -31 -5 3 5 -6 12 -20 16 -14 3 -31 16 -37 27 -9 18
-7 23 11 35 11 8 21 21 21 28 0 8 5 14 10 14 6 0 10 7 10 15 0 20 -10 19 -25
-2 -18 -24 -26 -1 -10 30 12 24 12 27 -3 27 -14 0 -15 2 -3 9 10 7 19 4 27 -7
7 -9 26 -17 43 -18 26 -1 31 2 31 22 0 24 -23 33 -35 14 -4 -6 -11 -7 -17 -4
-6 4 0 13 16 21 28 14 32 29 16 53 -8 13 -11 12 -16 -6 -7 -27 -108 -51 -133
-31 -12 10 -13 9 -6 -3 5 -11 5 -12 -3 -5 -6 6 -13 24 -15 40 -2 21 -10 31
-24 33 -17 3 -22 -4 -27 -40 -8 -50 -22 -72 -52 -82 -19 -6 -21 -3 -16 19 4
22 1 25 -23 25 -33 0 -59 -25 -51 -48 4 -10 -3 -6 -16 9 -13 15 -31 29 -40 32
-22 8 -25 57 -4 57 9 0 12 -7 9 -18 -5 -21 23 -50 37 -36 4 5 10 23 12 39 2
24 7 30 26 28 12 -2 22 2 22 7 0 6 15 10 34 8 25 -1 39 5 58 25 15 16 36 27
52 27 14 0 26 5 26 10 0 6 -6 10 -14 10 -8 0 -17 8 -21 18 -6 15 -8 15 -25 -6
-11 -14 -24 -20 -31 -16 -8 4 -9 3 -5 -4 14 -23 -5 -34 -30 -18 -13 9 -31 16
-41 16 -22 1 -55 25 -46 33 3 4 -2 7 -13 7 -11 1 1 11 31 27 28 14 51 25 53
24 1 -1 12 8 25 19 12 12 47 35 77 53 264 150 716 586 801 772 10 22 19 61 19
87 0 49 -19 80 -84 138 l-29 26 20 55 c39 103 56 223 50 343 -3 61 -9 123 -12
138 -6 23 -4 27 21 31 59 9 121 6 184 -7z m-11568 -32 c-6 -31 -26 -26 -30 8
-3 22 0 26 16 21 14 -3 18 -11 14 -29z m773 16 c3 -5 1 -10 -4 -10 -6 0 -11 5
-11 10 0 6 2 10 4 10 3 0 8 -4 11 -10z m-530 -30 c8 0 15 -7 15 -15 0 -8 4
-15 9 -15 5 0 8 -24 7 -52 -1 -40 -5 -53 -16 -53 -11 0 -15 11 -14 42 0 32 -4
44 -17 48 -9 3 -20 17 -23 31 -8 32 3 53 16 30 5 -9 16 -16 23 -16z m-145 4
c0 -2 -6 -14 -12 -27 -7 -12 -13 -23 -14 -25 -1 -1 -8 0 -16 3 -14 6 -14 10
-1 35 9 19 19 27 28 23 8 -3 15 -7 15 -9z m8207 -29 c-4 -8 -13 -15 -22 -15
-13 0 -12 3 2 20 19 22 29 19 20 -5z m-7593 -29 c5 -19 4 -19 -8 -4 -7 10 -16
15 -19 12 -11 -12 -37 5 -31 20 8 21 51 0 58 -28z m26 34 c0 -5 -4 -10 -10
-10 -5 0 -10 5 -10 10 0 6 5 10 10 10 6 0 10 -4 10 -10z m-580 -26 c0 -8 -4
-12 -10 -9 -5 3 -10 10 -10 16 0 5 5 9 10 9 6 0 10 -7 10 -16z m184 2 c-5 -13
-34 -31 -34 -22 0 16 14 36 26 36 7 0 11 -6 8 -14z m-1084 -33 c0 -10 -7 -56
-14 -103 -26 -157 -29 -267 -12 -374 25 -154 55 -206 160 -282 l29 -21 -49
-27 c-71 -39 -89 -68 -89 -143 0 -78 25 -116 148 -225 116 -102 485 -350 630
-421 20 -11 37 -23 37 -28 0 -5 3 -8 8 -7 16 4 52 -14 52 -27 0 -18 -37 -38
-55 -31 -16 6 -27 -18 -19 -39 4 -8 1 -22 -6 -30 -19 -23 -5 -43 32 -47 71 -7
31 -68 -44 -68 -15 0 -28 -5 -28 -10 0 -6 -10 -15 -22 -21 -19 -8 -17 -9 13
-5 49 6 65 -5 48 -33 -8 -11 -18 -21 -22 -21 -5 0 -6 -8 -2 -19 3 -10 -1 -24
-10 -31 -8 -7 -15 -9 -15 -6 0 4 -7 0 -16 -8 -14 -15 -14 -17 0 -32 18 -17 21
-44 6 -44 -5 0 -10 -12 -10 -26 0 -14 -4 -23 -10 -19 -5 3 -10 2 -10 -4 0 -12
-44 -61 -55 -61 -4 0 -5 7 -1 15 4 11 -6 18 -39 27 -25 7 -45 16 -45 21 0 4
-5 5 -11 1 -7 -4 -9 1 -7 12 2 11 10 18 18 17 15 -2 56 44 47 53 -3 3 -17 -2
-31 -11 -22 -14 -29 -15 -42 -4 -13 10 -17 10 -24 0 -6 -10 -9 -10 -15 -1 -4
6 -14 9 -22 6 -11 -5 -13 -2 -9 9 3 9 2 13 -4 10 -5 -3 -8 -25 -5 -48 l4 -43
-40 1 c-24 0 -39 5 -39 13 0 6 5 12 10 12 6 0 10 11 10 24 0 13 6 27 13 29 7
3 4 6 -6 6 -29 1 -57 -18 -57 -39 0 -10 -4 -22 -10 -25 -15 -9 -12 -45 4 -45
7 0 16 -9 19 -21 4 -15 11 -19 25 -14 40 12 62 14 62 4 0 -5 -3 -9 -7 -9 -5 0
-17 -7 -28 -16 -15 -11 -17 -17 -7 -23 7 -4 15 -20 18 -34 4 -23 1 -27 -19
-27 -13 0 -28 5 -35 12 -8 8 -13 5 -21 -13 -13 -36 -37 -54 -45 -34 -3 9 -18
15 -36 15 -20 0 -29 4 -25 11 4 6 13 8 20 5 8 -3 18 1 25 8 8 10 7 15 -6 20
-24 9 -52 8 -36 -2 8 -6 1 -13 -23 -22 -54 -21 -62 -36 -37 -69 20 -27 20 -30
4 -42 -42 -34 -60 -39 -77 -23 -20 20 -26 15 -18 -15 3 -13 11 -20 19 -17 16
6 38 -29 29 -45 -4 -5 -12 -8 -18 -6 -7 2 -18 -2 -25 -10 -11 -11 -18 -10 -41
2 -16 8 -31 11 -35 8 -3 -4 -6 2 -6 11 0 15 -7 17 -41 13 -23 -3 -44 -9 -48
-14 -3 -5 -13 -12 -23 -16 -15 -5 -29 -53 -33 -114 -4 -45 -41 -67 -65 -38 -7
8 -16 12 -21 9 -5 -3 -8 -2 -7 3 8 24 -90 91 -195 133 -156 62 -366 99 -413
72 -23 -13 -22 -14 105 -36 51 -10 132 -31 180 -47 47 -17 114 -40 149 -52 34
-11 62 -27 62 -34 0 -16 26 -17 35 -2 11 16 38 6 41 -16 5 -29 -6 -57 -19 -52
-7 2 -12 8 -12 13 0 16 -16 34 -30 34 -8 0 -11 -7 -8 -20 3 -12 -2 -29 -12
-40 -9 -10 -14 -24 -10 -30 5 -8 -2 -10 -21 -8 -18 2 -29 9 -29 18 0 17 -32
21 -57 6 -10 -6 -18 -17 -18 -25 0 -7 8 -20 18 -27 16 -12 15 -15 -10 -37 -16
-14 -28 -35 -28 -48 0 -15 -10 -30 -28 -41 -15 -9 -65 -40 -112 -68 -132 -81
-172 -103 -195 -105 -11 -1 -23 -3 -27 -4 -5 0 -8 -8 -8 -16 0 -8 -4 -15 -9
-15 -5 0 -14 7 -21 15 -19 23 -28 18 -40 -23 -9 -34 -14 -39 -40 -39 -16 0
-30 5 -30 10 0 5 -7 4 -15 -3 -16 -13 -10 -34 7 -24 6 4 5 -2 -2 -15 -8 -17
-17 -20 -33 -15 -12 3 -19 3 -15 -1 12 -12 -24 -34 -54 -35 -15 0 -33 7 -42
15 -29 30 -74 13 -68 -26 2 -10 -6 -19 -19 -22 -21 -6 -21 -7 -6 -31 13 -19
14 -25 3 -29 -8 -3 -18 -1 -24 5 -16 16 -49 0 -62 -33 -12 -29 -45 -38 -45
-12 0 20 -16 28 -25 13 -10 -17 -20 -10 -24 16 -4 26 -34 43 -45 25 -5 -7 -14
-10 -21 -6 -9 6 -9 9 1 15 14 9 -42 5 -78 -6 -19 -5 -23 -2 -23 15 0 12 8 33
17 48 10 14 18 32 19 39 2 13 2 13 -56 -16 -11 -5 -26 -10 -34 -10 -26 0 -37
-73 -13 -84 6 -3 0 -4 -15 -1 -16 3 -28 1 -28 -5 0 -5 5 -10 11 -10 15 0 -63
-89 -78 -90 -13 0 -17 12 -14 38 2 9 -4 12 -16 8 -13 -4 -21 2 -29 19 -10 20
-8 27 9 42 11 10 17 13 14 7 -4 -7 0 -14 7 -17 11 -5 14 2 13 29 -2 33 -10 43
-21 25 -10 -16 -46 0 -46 20 0 22 -4 23 -31 9 -23 -13 -24 -28 -5 -49 8 -9 17
-29 20 -46 6 -29 6 -30 -33 -30 -23 0 -49 7 -59 16 -36 31 -78 30 -74 -3 1 -3
-5 -11 -12 -17 -17 -14 -9 -51 10 -51 8 0 14 -7 14 -15 0 -23 -38 -18 -76 11
l-34 26 6 -32 c7 -30 6 -31 -22 -28 -22 2 -28 8 -26 21 3 15 0 17 -17 8 -37
-20 -61 -14 -61 17 0 22 -7 30 -30 39 -16 6 -39 9 -50 6 -11 -3 -26 0 -34 6
-20 17 -58 22 -72 10 -9 -7 -16 -5 -24 11 -9 17 -14 19 -25 10 -30 -25 -34 -3
-5 28 33 37 37 56 16 78 -19 18 -32 18 -40 -1 -6 -18 -27 -20 -23 -3 1 6 -6
14 -15 16 -25 5 -23 -23 3 -59 12 -17 19 -41 17 -58 -1 -16 4 -36 11 -45 8 -9
9 -16 3 -16 -6 0 -12 4 -14 9 -1 5 -23 12 -47 14 -39 4 -60 18 -61 40 0 4 9 7
20 7 12 0 20 -7 20 -16 0 -13 3 -14 15 -4 13 11 13 16 -2 41 -10 16 -21 29
-25 29 -4 0 -8 7 -8 16 0 8 -4 13 -9 10 -5 -4 -7 4 -3 16 3 14 2 19 -6 14 -7
-4 -12 -14 -12 -22 0 -8 -4 -14 -9 -14 -6 0 -6 12 1 31 8 23 7 33 -2 42 -10 9
-11 9 -5 -2 10 -17 -14 -32 -40 -25 l-20 6 20 -16 c20 -15 19 -17 -23 -21 -13
-1 -28 -7 -35 -14 -6 -6 -21 -11 -34 -11 -16 0 -23 -6 -23 -19 0 -45 -82 -58
-88 -13 -2 13 -8 20 -14 16 -6 -4 -8 -2 -5 3 4 6 0 16 -8 23 -8 7 -13 16 -10
20 7 11 -55 4 -67 -8 -8 -8 -5 -14 14 -21 23 -9 38 -29 38 -52 0 -5 -11 -9
-25 -9 -24 0 -29 7 -26 40 1 8 -12 21 -29 29 -27 11 -33 11 -49 -3 -9 -8 -27
-17 -39 -19 -12 -2 -27 -8 -33 -14 -8 -8 -18 -7 -37 3 -20 10 -28 11 -34 1 -5
-8 -8 -6 -8 6 0 10 -5 15 -10 12 -6 -4 -16 -2 -23 3 -7 5 -20 8 -30 7 -10 -2
-16 2 -14 8 3 7 10 11 16 10 6 -2 11 2 11 8 0 6 -5 9 -12 7 -6 -2 -23 8 -37
23 -14 15 -35 30 -47 33 -18 6 -20 3 -16 -24 2 -16 14 -40 26 -53 22 -24 24
-47 3 -47 -6 0 -30 7 -52 16 -43 16 -55 43 -30 64 14 11 9 50 -6 50 -5 0 -9 7
-9 15 0 8 5 15 12 15 9 0 9 3 0 12 -10 10 -15 10 -21 -1 -7 -10 -13 -11 -30
-1 -28 14 -75 -4 -92 -37 -12 -22 -36 -26 -32 -6 2 8 -18 10 -59 4 -5 -1 -8
-8 -8 -16 0 -9 -6 -12 -15 -9 -19 8 -10 23 22 35 19 7 23 14 18 29 -4 12 0 31
9 45 15 22 14 24 -5 30 -11 4 -26 2 -34 -5 -9 -7 -15 -8 -20 0 -3 5 -11 10
-16 10 -6 0 -7 -4 -4 -10 4 -6 -5 -10 -20 -10 -22 0 -24 -3 -15 -19 10 -19 4
-51 -9 -51 -4 0 -17 7 -29 16 -13 9 -29 13 -37 10 -8 -3 -17 -1 -20 5 -4 5
-10 7 -15 4 -17 -10 -40 8 -40 31 0 13 -5 24 -11 24 -6 0 -8 11 -4 29 8 39
-21 52 -35 16 -5 -14 -12 -25 -15 -25 -4 0 -3 5 1 12 5 7 3 8 -7 2 -8 -4 -22
-10 -31 -11 -20 -3 -118 54 -118 68 0 6 5 7 12 3 7 -4 8 -3 4 4 -4 7 -20 12
-36 12 -19 0 -35 9 -50 28 -12 15 -18 21 -14 13 4 -9 2 -12 -6 -9 -20 6 -24
28 -6 28 9 0 16 4 16 8 0 4 -16 6 -35 4 -31 -4 -50 5 -133 61 -163 110 -182
125 -176 142 4 8 3 22 0 30 -5 13 -10 14 -27 5 -20 -11 -20 -12 -2 -25 10 -8
14 -15 10 -15 -5 0 -64 38 -130 84 -138 95 -170 112 -239 132 -72 22 -97 -2
-33 -33 19 -9 35 -21 35 -25 0 -5 4 -7 9 -4 9 6 104 -51 109 -65 2 -5 8 -9 13
-9 5 0 97 -60 204 -132 334 -228 308 -207 279 -239 -27 -30 -48 -23 -78 26
-16 24 -33 42 -39 38 -6 -3 -7 -1 -3 5 10 16 -10 49 -34 57 -25 8 -50 -10 -50
-36 0 -22 -4 -23 -33 -8 -11 7 -39 12 -61 13 -31 1 -42 5 -44 19 -3 15 2 17
27 12 23 -4 33 -1 40 14 9 17 6 19 -25 23 -22 3 -38 -1 -42 -9 -6 -10 -11 -9
-22 5 -8 9 -15 24 -15 32 0 8 -10 16 -22 18 -13 2 -23 1 -23 -1 0 -13 23 -66
28 -66 17 3 19 -3 12 -36 -5 -20 -4 -33 1 -29 5 3 9 1 9 -5 0 -5 -4 -12 -9
-15 -4 -3 -6 -17 -3 -31 5 -28 36 -35 46 -9 3 8 10 13 15 10 5 -4 12 0 15 6 2
7 4 2 3 -12 -1 -15 3 -24 11 -23 6 2 12 -3 12 -10 0 -18 -53 -43 -58 -28 -5
14 -37 14 -63 1 -16 -9 -19 -7 -19 12 0 37 -16 53 -48 50 -20 -2 -31 2 -36 13
-3 9 -10 14 -15 11 -4 -3 -16 3 -26 14 -10 11 -21 18 -25 15 -4 -2 -12 7 -18
20 -9 19 -8 27 3 39 17 17 20 56 5 56 -6 0 -13 -6 -16 -13 -3 -8 -20 -12 -47
-11 -61 3 -60 3 -48 17 15 18 3 29 -20 17 -9 -6 -25 -7 -34 -4 -14 6 -13 10 5
41 17 29 18 35 5 39 -8 4 -22 4 -29 1 -9 -4 -17 2 -21 14 -4 12 -12 18 -21 15
-9 -3 -14 1 -14 13 0 19 25 35 40 26 5 -3 14 4 20 15 14 26 29 18 23 -13 -6
-29 19 -51 47 -42 11 3 18 10 15 15 -3 5 4 18 16 29 14 13 19 26 15 37 -4 10
-1 21 5 25 7 4 14 14 15 22 2 15 -15 13 -76 -10 -8 -4 -18 -6 -22 -5 -4 1 -4
-6 -1 -14 4 -11 2 -15 -6 -13 -7 3 -12 9 -12 14 0 17 -41 27 -51 13 -5 -9 -8
-7 -8 8 0 11 -11 30 -25 42 l-26 22 -24 -24 c-14 -14 -25 -30 -25 -35 0 -5
-17 -11 -37 -13 -36 -3 -38 -5 -35 -35 1 -24 -2 -33 -13 -33 -8 0 -15 7 -15
15 0 19 -60 21 -78 3 -8 -8 -15 -9 -22 -2 -12 12 -2 47 11 38 5 -3 9 0 9 5 0
13 0 13 -60 17 -65 5 -70 6 -64 15 3 5 0 17 -5 28 -9 17 -7 20 18 26 40 8 53
27 48 64 -5 26 -2 32 18 37 29 7 41 1 48 -26 3 -11 1 -18 -4 -14 -5 3 -9 -1
-9 -8 0 -7 -3 -23 -6 -35 -5 -19 -2 -23 15 -23 11 0 21 5 21 11 0 8 4 9 13 0
8 -6 17 -8 20 -4 4 3 7 2 7 -3 0 -6 -5 -15 -11 -21 -6 -6 -8 -16 -5 -22 12
-19 36 -12 45 13 5 13 17 26 25 29 41 16 -3 79 -56 81 -31 1 -33 4 -30 27 3
21 11 28 34 33 18 3 32 14 35 25 3 11 13 21 24 24 10 3 19 12 19 21 0 9 13 18
35 22 56 10 55 27 -1 20 -27 -3 -74 -8 -104 -11 -30 -3 -94 -10 -142 -17 -79
-10 -86 -12 -78 -29 14 -25 13 -29 -9 -29 -21 0 -45 23 -34 33 9 10 -79 8
-162 -3 -70 -9 -412 -37 -514 -43 l-54 -3 -17 -50 c-39 -112 -57 -329 -37
-432 l9 -43 -39 19 c-108 57 -175 183 -213 404 -11 59 -23 116 -29 125 -16 30
-25 -28 -18 -125 l6 -85 -60 7 c-117 12 -204 83 -250 204 -16 45 -22 87 -26
197 -3 77 -7 142 -9 144 -2 2 -11 -12 -19 -32 -10 -23 -15 -69 -15 -128 l0
-91 -52 7 c-80 10 -190 36 -219 51 -43 21 -104 90 -137 152 -81 154 -56 370
63 543 46 67 46 84 3 66 -38 -15 -86 -88 -120 -181 l-22 -59 -23 29 c-34 43
-49 122 -36 192 22 116 51 172 127 247 79 78 151 118 258 143 66 16 68 17 63
43 -7 31 29 80 78 106 104 53 336 84 500 65 99 -11 220 -38 282 -62 29 -12 28
-12 -55 -34 -136 -36 -190 -56 -190 -72 0 -18 9 -18 105 5 456 109 788 150
1291 158 455 8 767 -16 1088 -83 253 -52 412 -43 745 42 117 30 293 70 390 89
182 36 256 56 500 131 139 43 282 71 696 134 284 43 479 100 621 180 109 61
329 143 554 205 221 61 496 133 513 134 10 1 17 -6 17 -16z m1360 7 c13 0 30
-59 19 -65 -5 -4 -9 -14 -8 -23 0 -10 3 -12 5 -5 3 7 11 10 18 7 8 -3 15 6 19
24 7 32 32 49 41 27 3 -8 -1 -21 -9 -29 -8 -8 -15 -17 -15 -21 0 -3 -12 -23
-26 -44 -27 -42 -62 -65 -50 -35 5 14 4 15 -9 4 -8 -7 -15 -21 -15 -31 0 -21
-8 -23 -29 -10 -15 10 -23 101 -9 101 4 0 8 -8 8 -17 0 -16 1 -16 17 0 16 15
15 18 -2 37 -16 17 -17 25 -7 40 7 11 12 27 12 36 0 11 5 14 16 10 9 -3 19 -6
24 -6z m7850 -14 c0 -3 -4 -8 -10 -11 -5 -3 -10 -1 -10 4 0 6 5 11 10 11 6 0
10 -2 10 -4z m-8150 -26 c0 -5 -4 -10 -9 -10 -6 0 -13 5 -16 10 -3 6 1 10 9
10 9 0 16 -4 16 -10z m36 -58 c-3 -6 -15 -8 -25 -5 -17 4 -18 8 -8 24 10 16
14 17 25 5 8 -8 12 -19 8 -24z m92 6 c-3 -25 -25 -33 -48 -18 -13 8 -12 11 5
24 29 22 47 20 43 -6z m32 -48 c0 -19 -20 -27 -33 -13 -8 7 11 33 24 33 5 0 9
-9 9 -20z m307 -51 c-3 -32 -1 -60 4 -63 5 -2 4 -3 -3 -2 -7 2 -23 -1 -36 -5
-16 -6 -33 -4 -53 6 -30 16 -38 27 -17 23 7 -2 14 7 16 19 2 12 10 27 19 34
13 11 18 10 34 -10 l19 -24 -5 37 c-7 39 0 60 17 50 6 -4 8 -29 5 -65z m8120
-260 c-22 -13 -68 -8 -57 6 5 7 24 10 41 7 24 -4 28 -7 16 -13z m-220 -51 c-3
-8 -6 -5 -6 6 -1 11 2 17 5 13 3 -3 4 -12 1 -19z m1701 -1122 c12 -28 5 -41
-14 -25 -22 18 -47 2 -41 -26 3 -18 -1 -29 -14 -35 -20 -11 -70 2 -51 14 7 4
12 16 12 26 0 12 17 29 43 44 52 32 51 32 65 2z m-10148 -71 c18 -10 20 -14 8
-15 -23 0 -48 11 -48 21 0 12 11 11 40 -6z m150 -75 l35 -20 -41 6 c-32 5 -42
3 -47 -10 -6 -16 -37 -23 -37 -8 0 15 31 52 43 52 7 -1 28 -10 47 -20z m10217
-16 c-9 -9 -28 6 -21 18 4 6 10 6 17 -1 6 -6 8 -13 4 -17z m-142 -34 c3 -5 -1
-10 -10 -10 -9 0 -13 5 -10 10 3 6 8 10 10 10 2 0 7 -4 10 -10z m-10235 -26
c0 -8 -6 -14 -13 -14 -7 0 -20 -8 -29 -17 -46 -51 -69 -66 -80 -55 -16 16 28
62 59 62 13 0 23 6 23 13 0 17 21 38 32 31 4 -3 8 -12 8 -20z m9735 6 c-3 -5
-12 -10 -18 -10 -7 0 -6 4 3 10 19 12 23 12 15 0z m405 -11 c0 -11 -60 -42
-67 -35 -10 9 40 54 54 49 7 -3 13 -9 13 -14z m271 -71 c-4 -12 -16 -22 -25
-24 -10 -1 -23 -10 -30 -20 -14 -18 -36 -12 -36 11 0 18 40 56 51 49 5 -3 5 6
0 19 -14 36 0 43 26 13 16 -19 20 -32 14 -48z m-584 56 c-3 -3 -12 -4 -19 -1
-8 3 -5 6 6 6 11 1 17 -2 13 -5z m490 -14 c10 -13 8 -16 -8 -17 -10 -1 -19 4
-19 11 0 11 12 30 14 24 1 -2 7 -10 13 -18z m-434 -15 c-7 -21 -13 -19 -13 6
0 11 4 18 10 14 5 -3 7 -12 3 -20z m284 -41 c-3 -3 -12 -4 -19 -1 -8 3 -5 6 6
6 11 1 17 -2 13 -5z m-307 -34 c0 -17 -3 -19 -19 -8 -21 13 -19 28 5 28 8 0
14 -9 14 -20z m278 -17 c2 -14 -4 -22 -17 -26 -12 -3 -23 -18 -28 -37 l-8 -32
-39 38 -38 37 21 21 c18 17 24 19 40 9 15 -10 22 -9 32 3 16 19 33 13 37 -13z
m172 -13 c0 -15 -37 -12 -43 4 -3 8 -3 17 0 20 8 7 43 -12 43 -24z m160 -30
c0 -13 -11 -13 -30 0 -12 8 -11 10 8 10 12 0 22 -4 22 -10z m-10532 -19 c1 -1
-2 -10 -8 -22 -11 -20 -12 -20 -31 -3 -10 9 -19 21 -19 26 0 7 33 6 58 -1z
m10419 -36 c4 -27 -11 -34 -21 -10 -6 17 3 49 12 40 3 -3 8 -17 9 -30z m62
-12 c0 -25 -1 -25 -8 -8 -5 11 -7 23 -4 28 8 14 13 7 12 -20z m-329 -48 c0 -9
-6 -12 -15 -9 -8 4 -12 10 -9 15 8 14 24 10 24 -6z m313 -5 c-5 -20 -43 -48
-43 -33 0 4 -5 1 -10 -7 -7 -11 -10 -7 -10 18 0 17 5 32 11 32 5 0 8 -4 5 -8
-2 -4 4 -8 14 -8 10 0 18 3 18 6 -1 13 3 20 11 20 5 0 7 -9 4 -20z m-183 6 c0
-11 -19 -15 -25 -6 -3 5 1 10 9 10 9 0 16 -2 16 -4z m-10630 -28 c0 -4 -6 -8
-14 -8 -8 0 -17 4 -20 8 -2 4 4 8 15 8 10 0 19 -4 19 -8z m11204 -36 c-1 -12
4 -22 10 -23 6 0 1 -4 -12 -9 -13 -6 -29 -24 -36 -41 -13 -32 -14 -32 -25 -11
-16 31 20 115 46 110 11 -2 18 -12 17 -26z m-306 -22 c2 -47 -22 -56 -33 -13
-5 20 -2 31 11 40 10 7 18 13 19 13 1 0 2 -18 3 -40z m-10942 6 c18 -19 18
-26 -1 -26 -8 0 -15 2 -15 4 0 2 -3 11 -6 20 -8 20 3 21 22 2z m11344 -41 c0
-9 -6 -12 -16 -8 -13 5 -13 7 -2 14 17 11 18 11 18 -6z m-320 -36 c0 -5 -4 -9
-10 -9 -5 0 -10 7 -10 16 0 8 5 12 10 9 6 -3 10 -10 10 -16z m-16960 -37 c-11
-2 -25 -12 -30 -23 -9 -15 -15 -17 -31 -9 -15 9 -17 15 -9 30 12 22 48 30 73
15 17 -9 16 -10 -3 -13z m17100 -8 c0 -8 -7 -14 -15 -14 -15 0 -21 21 -9 33
10 9 24 -2 24 -19z m-17180 -88 c0 -8 -4 -18 -10 -21 -5 -3 -10 -4 -10 -1 0 2
-3 11 -6 20 -4 11 -1 16 10 16 9 0 16 -6 16 -14z m17450 4 c0 -5 -4 -10 -10
-10 -5 0 -10 5 -10 10 0 6 5 10 10 10 6 0 10 -4 10 -10z m-17500 -136 c6 -14
10 -26 10 -27 0 -1 -12 -3 -27 -4 -46 -2 -63 51 -18 55 19 1 28 -5 35 -24z
m5622 -9 c-3 -17 -29 -44 -42 -45 -3 0 -11 4 -19 9 -20 13 4 42 26 34 13 -5
15 -2 10 11 -5 13 -3 17 11 14 10 -2 16 -11 14 -23z m-5921 -24 c-12 -12 -21
-17 -21 -13 0 5 3 12 8 16 4 4 8 12 8 17 1 5 2 12 3 16 0 4 6 2 12 -4 8 -8 5
-17 -10 -32z m-290 -44 c-1 -12 -15 -9 -19 4 -3 6 1 10 8 8 6 -3 11 -8 11 -12z
m585 -3 c-3 -9 -6 -18 -6 -20 0 -2 -11 -4 -25 -4 -42 0 -18 33 29 39 4 0 5 -6
2 -15z m-82 -20 c17 -7 22 -44 6 -44 -9 0 -30 31 -30 44 0 8 5 7 24 0z m294
-6 c-3 -7 -12 -14 -21 -16 -12 -2 -15 1 -11 12 7 19 38 22 32 4z m225 -25 c-7
-2 -13 -13 -13 -24 0 -12 -5 -16 -15 -12 -14 5 -14 8 1 24 9 11 22 19 28 18 6
0 6 -3 -1 -6z m-204 -50 c0 -16 -3 -22 -6 -15 -2 6 -11 12 -19 12 -15 0 -19
12 -7 23 16 16 33 5 32 -20z m5145 18 c8 -13 -15 -29 -52 -36 -20 -3 -32 -1
-32 5 0 6 4 9 9 6 5 -3 20 3 32 14 27 22 35 24 43 11z m-6005 -32 c-15 -9 -32
-2 -24 11 3 5 13 6 21 3 12 -4 13 -8 3 -14z m5908 1 c2 -23 -12 -35 -22 -20
-4 6 -1 17 5 25 16 19 15 19 17 -5z m-75 -36 c3 -3 -5 -17 -18 -31 -13 -14
-27 -24 -30 -21 -3 3 2 13 11 22 9 9 14 16 10 16 -3 0 -3 5 0 10 7 11 19 13
27 4z m-4929 -11 c-7 -2 -19 -2 -25 0 -7 3 -2 5 12 5 14 0 19 -2 13 -5z m342
-42 c3 -6 -4 -15 -15 -21 -16 -8 -20 -8 -20 3 0 25 23 36 35 18z m-73 -41 c5
0 6 6 2 13 -4 6 5 0 19 -16 26 -27 27 -53 3 -70 -7 -4 -2 -9 12 -13 25 -7 26
-8 12 -34 -8 -16 -15 -18 -35 -10 -17 7 -28 5 -38 -4 -20 -21 -46 -3 -28 18 9
10 11 28 7 47 -5 26 -4 30 8 20 26 -22 28 8 2 35 -19 21 -22 30 -13 40 10 11
15 9 26 -6 7 -11 18 -20 23 -20z m4587 9 c-16 -10 -23 -4 -14 10 3 6 11 8 17
5 6 -4 5 -9 -3 -15z m-4734 -18 c3 -5 1 -12 -5 -16 -5 -3 -10 1 -10 9 0 18 6
21 15 7z m242 -31 c-2 -33 -12 -40 -19 -12 -6 21 1 42 12 42 5 0 8 -13 7 -30z
m17718 10 c-3 -5 -12 -10 -18 -10 -7 0 -6 4 3 10 19 12 23 12 15 0z m-17280
-20 c0 -8 8 -14 18 -14 10 1 17 -5 17 -17 0 -10 5 -19 11 -19 5 0 7 -4 4 -10
-3 -5 1 -10 9 -10 9 0 16 -5 16 -10 0 -7 -6 -7 -17 -1 -23 12 -63 45 -43 35
13 -7 13 -5 1 9 -15 19 -42 22 -58 6 -6 -6 -16 -8 -23 -4 -7 5 -5 12 9 24 11
10 17 21 13 25 -4 5 4 6 18 4 14 -1 25 -10 25 -18z m17230 1 c3 -5 2 -12 -3
-15 -5 -3 -9 1 -9 9 0 17 3 19 12 6z m-18940 -11 c11 -18 -6 -50 -26 -50 -19
0 -24 16 -13 44 7 18 30 21 39 6z m368 3 c-7 -2 -19 -2 -25 0 -7 3 -2 5 12 5
14 0 19 -2 13 -5z m341 -8 c3 -8 1 -15 -4 -15 -6 0 -10 7 -10 15 0 8 2 15 4
15 2 0 6 -7 10 -15z m229 8 c-7 -2 -19 -2 -25 0 -7 3 -2 5 12 5 14 0 19 -2 13
-5z m43 -20 c-10 -10 -19 5 -10 18 6 11 8 11 12 0 2 -7 1 -15 -2 -18z m-826 7
c0 -5 -5 -10 -11 -10 -5 0 -7 5 -4 10 3 6 8 10 11 10 2 0 4 -4 4 -10z m-80
-15 c0 -8 -4 -15 -10 -15 -5 0 -10 7 -10 15 0 8 5 15 10 15 6 0 10 -7 10 -15z
m18887 -21 c-3 -3 -12 -4 -19 -1 -8 3 -5 6 6 6 11 1 17 -2 13 -5z m-18915 -26
c3 -7 3 -19 1 -26 -6 -16 -33 4 -33 24 0 17 26 18 32 2z m1238 -33 c0 -7 -11
-16 -25 -19 -16 -4 -22 -11 -19 -21 4 -8 1 -15 -5 -15 -6 0 -11 7 -11 15 0 8
-4 15 -10 15 -5 0 -10 5 -10 11 0 6 7 9 15 5 13 -5 19 4 17 25 -1 3 10 4 23 1
14 -2 25 -10 25 -17z m779 -2 c42 -24 44 -27 24 -36 -11 -5 -23 -22 -26 -37
-6 -29 -34 -47 -49 -32 -5 5 -5 19 0 33 10 26 5 52 -8 44 -5 -3 -7 3 -5 12 2
10 4 24 4 31 1 17 8 15 60 -15z m-1125 -27 c-4 -19 -12 -26 -31 -26 -24 0 -24
1 -11 23 8 12 18 28 22 35 13 22 28 -2 20 -32z m816 -18 c0 -21 0 -21 -22 -2
-13 10 -25 20 -27 21 -2 2 8 3 22 3 21 0 27 -5 27 -22z m80 -23 c0 -10 -10
-15 -26 -15 -22 0 -25 2 -14 15 7 8 19 15 26 15 8 0 14 -7 14 -15z m81 -8 c-1
-12 -15 -9 -19 4 -3 6 1 10 8 8 6 -3 11 -8 11 -12z m269 -4 c27 -24 26 -45 -2
-41 -13 2 -23 8 -23 15 0 7 -9 19 -20 27 -20 15 -20 15 2 16 13 0 32 -8 43
-17z m95 -53 c0 -7 -6 -15 -12 -17 -8 -3 -13 4 -13 17 0 13 5 20 13 18 6 -3
12 -11 12 -18z m-125 -28 c0 -28 -3 -33 -21 -30 -49 7 -47 69 2 65 15 -1 19
-9 19 -35z m403 -131 c-9 -12 -25 20 -18 36 7 16 9 15 15 -7 4 -14 5 -27 3
-29z m255 9 c35 -1 36 -2 18 -15 -11 -8 -28 -13 -37 -10 -10 3 -20 1 -24 -5
-10 -17 -35 -11 -35 8 0 24 10 34 28 27 7 -3 30 -5 50 -5z m172 -4 c0 -9 -40
-13 -46 -5 -3 5 6 9 20 9 14 0 26 -2 26 -4z m1741 -53 c-11 -7 -27 -10 -36 -7
-14 6 -13 10 7 31 21 22 23 23 35 7 11 -15 10 -20 -6 -31z m-76 -12 c6 -11
-33 -36 -42 -27 -7 7 16 36 28 36 4 0 10 -4 14 -9z m-1955 -16 c0 -8 -4 -15
-10 -15 -5 0 -7 7 -4 15 4 8 8 15 10 15 2 0 4 -7 4 -15z m1120 0 c0 -8 -4 -15
-10 -15 -5 0 -7 7 -4 15 4 8 8 15 10 15 2 0 4 -7 4 -15z m710 -30 c-1 -6 -15
-18 -31 -28 l-29 -19 0 25 c0 19 6 27 23 30 29 6 39 3 37 -8z m197 -31 c-3 -3
-12 -4 -19 -1 -8 3 -5 6 6 6 11 1 17 -2 13 -5z m14029 -36 c4 -7 3 -8 -5 -4
-6 4 -23 0 -38 -9 -14 -9 -22 -12 -19 -6 4 6 0 11 -11 12 -13 1 -11 3 7 9 37
12 58 11 66 -2z m-110 -21 c8 3 14 0 14 -6 0 -6 -7 -11 -16 -11 -9 0 -14 -7
-12 -17 2 -11 12 -18 28 -18 20 0 24 -5 24 -30 0 -35 -17 -39 -56 -13 -14 10
-33 15 -42 12 -12 -4 -16 0 -16 15 0 12 6 21 14 21 7 0 19 7 26 15 11 13 10
14 -2 10 -9 -4 -15 0 -15 10 0 9 6 14 14 11 7 -3 13 0 14 7 0 9 2 9 5 0 3 -7
12 -9 20 -6z m84 -12 c-10 -12 -10 -15 0 -15 8 0 11 -2 8 -5 -3 -3 -13 -3 -22
1 -13 5 -14 9 -5 20 6 8 16 14 21 14 6 0 5 -7 -2 -15z m-40 -15 c0 -5 -5 -10
-11 -10 -5 0 -7 5 -4 10 3 6 8 10 11 10 2 0 4 -4 4 -10z m105 -29 c3 -6 -3 -9
-14 -8 -11 0 -17 5 -15 9 7 11 22 10 29 -1z m-64 -76 c-1 -15 -24 -12 -29 3
-3 9 2 13 12 10 10 -1 17 -7 17 -13z m-201 -120 c8 17 9 17 7 -6 -1 -21 -4
-25 -17 -17 -10 6 -14 23 -13 46 2 53 6 54 11 2 3 -35 6 -41 12 -25z m64 -221
c19 -7 22 -28 4 -21 -7 2 -18 -3 -24 -11 -16 -22 -37 -6 -24 19 11 20 19 23
44 13z m-255 -148 c9 -11 6 -12 -14 -8 -14 2 -22 8 -19 13 8 13 20 11 33 -5z
m-314 -338 c87 -93 141 -160 198 -249 103 -161 190 -356 213 -476 l7 -37 -64
58 c-71 64 -174 128 -343 213 -107 54 -188 87 -441 178 -117 42 -360 132 -380
141 -5 2 -18 9 -27 16 -30 22 -31 1 -5 -101 43 -164 53 -280 39 -434 -19 -203
-58 -372 -131 -562 -21 -55 -23 -53 -36 50 -12 92 -63 271 -120 420 -69 181
-175 355 -217 355 -17 0 -55 -156 -92 -380 -48 -286 -45 -428 19 -815 34 -203
55 -367 55 -430 0 -24 -7 -16 -34 45 -18 41 -76 166 -129 277 -54 111 -97 207
-97 213 0 6 -4 9 -9 6 -11 -7 -27 -105 -41 -251 -35 -363 -99 -662 -180 -835
l-20 -45 4 55 c3 30 10 102 17 160 14 130 7 464 -16 645 -62 514 -217 1103
-365 1397 -16 32 -26 59 -22 61 4 3 24 7 45 11 21 4 44 9 51 12 34 13 229
-609 300 -956 41 -203 85 -550 86 -674 0 -60 10 -16 25 110 9 71 18 242 22
380 l6 251 75 -146 c41 -80 90 -175 108 -211 l35 -65 -6 55 c-33 358 -32 698
4 874 23 110 97 342 112 352 16 10 86 -45 156 -121 114 -125 199 -300 242
-499 12 -52 21 -98 21 -101 0 -4 4 -4 9 -1 4 3 14 47 22 98 19 126 17 386 -5
513 -19 116 -61 277 -83 319 -18 35 -7 46 46 46 19 0 62 7 96 15 l62 16 68
-42 c90 -54 150 -81 396 -174 225 -86 386 -163 528 -255 51 -34 95 -59 98 -57
14 14 -88 188 -188 322 -37 50 -110 138 -162 196 l-95 107 31 9 c40 12 51 7
112 -59z m2354 -93 c113 -40 214 -101 684 -412 484 -320 635 -441 687 -546 36
-75 55 -164 41 -200 -15 -40 -74 -66 -64 -28 4 15 -33 50 -172 163 -357 289
-536 416 -832 592 -88 52 -236 120 -317 145 -87 27 -145 26 -226 -2 -97 -35
-305 -166 -459 -289 -419 -335 -986 -651 -1622 -901 -386 -152 -965 -319
-1320 -381 -41 -7 -39 -11 -55 130 l-6 60 58 13 c274 62 985 353 1729 709 410
197 866 463 1185 692 174 124 249 172 345 216 134 62 244 75 344 39z m-4547
-420 c17 -38 45 -114 64 -168 l34 -98 -35 -142 c-92 -369 -289 -850 -456
-1115 -275 -433 -629 -852 -1013 -1199 -377 -340 -704 -573 -1101 -783 -118
-62 -114 -55 15 30 291 194 560 419 875 735 437 436 764 849 1048 1320 297
493 482 1019 504 1429 7 134 6 134 65 -9z m-12369 -269 c256 -49 442 -105 907
-273 634 -230 915 -317 1481 -458 306 -77 480 -115 684 -149 135 -23 646 -100
752 -113 31 -4 43 -11 47 -27 3 -11 6 -90 6 -173 0 -139 -2 -153 -17 -153 -37
0 -425 78 -723 144 -349 78 -815 210 -1334 376 -681 219 -944 287 -1306 339
-236 34 -431 44 -693 36 -133 -4 -325 -8 -427 -8 -178 -2 -188 -3 -260 -31
-41 -16 -127 -55 -190 -86 -142 -72 -244 -104 -330 -104 -80 -1 -121 19 -145
70 -33 70 8 184 104 288 54 58 131 96 449 222 295 117 388 135 677 129 141 -2
210 -9 318 -29z m5324 -463 c96 -277 349 -778 499 -989 121 -171 414 -495 602
-666 527 -481 1330 -995 2074 -1328 54 -24 96 -45 95 -47 -8 -8 -292 100 -442
167 -22 10 -116 53 -210 95 -438 199 -729 362 -1262 711 -315 206 -440 309
-676 556 -225 237 -295 327 -474 613 -112 179 -350 611 -414 753 -46 100 -45
110 11 113 14 0 57 9 95 19 91 23 95 23 102 3z m-912 -53 c61 -5 138 -10 171
-10 44 0 65 -5 75 -16 7 -9 39 -36 72 -61 77 -59 158 -159 179 -221 40 -113
165 -169 283 -127 21 8 41 13 43 11 16 -16 192 -340 187 -344 -12 -12 -223
-14 -275 -3 -28 6 -70 24 -93 40 -98 68 -752 683 -778 733 -9 17 -8 19 8 14
10 -3 68 -10 128 -16z m-5158 4 c-3 -3 -12 -4 -19 -1 -8 3 -5 6 6 6 11 1 17
-2 13 -5z m13372 -111 c12 -65 24 -130 27 -144 4 -22 -3 -34 -48 -71 -120
-101 -338 -191 -414 -172 -19 5 -22 9 -14 24 5 10 37 85 70 166 33 81 62 149
64 152 2 2 16 -4 31 -14 44 -29 91 -7 174 82 39 42 71 80 71 85 0 5 4 9 8 9 5
0 19 -53 31 -117z m55 -354 c8 -63 17 -153 21 -201 7 -86 6 -87 -17 -92 -48
-11 -260 -27 -442 -33 l-188 -6 7 54 c4 30 24 88 45 130 l38 75 59 -4 c97 -7
286 68 410 163 25 19 48 34 50 31 2 -2 10 -55 17 -117z m348 -28 c17 -6 37
-36 67 -100 24 -51 41 -94 39 -97 -8 -7 -180 -36 -185 -31 -4 5 15 200 23 225
4 14 24 15 56 3z m-8587 -75 c44 -9 154 -27 245 -41 113 -17 172 -31 187 -43
11 -9 51 -43 88 -74 37 -31 84 -65 104 -74 53 -26 202 -39 305 -28 l86 10 69
-106 c38 -58 67 -106 66 -108 -6 -7 -422 19 -640 39 -243 22 -494 54 -742 95
l-162 27 87 92 c48 51 110 124 137 164 39 55 55 70 70 67 11 -2 56 -11 100
-20z m7560 -268 c-18 -107 -91 -902 -100 -1083 -5 -109 -28 -409 -50 -650 -20
-217 -36 -585 -42 -925 l-6 -395 -19 70 c-55 214 -121 592 -147 850 -33 319
-43 881 -21 1197 15 218 40 468 50 499 4 14 46 77 92 140 47 63 118 162 158
222 41 59 78 107 82 107 5 0 6 -15 3 -32z m-6133 -541 l90 -97 19 -117 c26
-163 65 -511 83 -743 51 -670 19 -1177 -104 -1608 -39 -135 -142 -443 -147
-438 -3 2 10 100 26 217 65 449 82 1223 41 1767 -26 335 -96 894 -135 1083
-20 93 -19 99 11 64 15 -16 67 -74 116 -128z m-7505 -3360 c-39 -51 -96 -129
-124 -173 l-53 -80 -72 -23 c-399 -126 -934 -423 -1262 -698 -21 -18 -43 -30
-48 -27 -5 3 -7 0 -6 -7 2 -6 -3 -14 -11 -17 -10 -3 -11 0 -5 9 6 11 5 12 -8
2 -8 -7 -19 -9 -23 -5 -5 4 -5 1 -1 -6 4 -7 13 -9 19 -5 7 3 3 -3 -7 -15 -20
-24 -52 -31 -40 -9 4 6 -5 1 -21 -13 -23 -20 -27 -21 -22 -7 9 24 -2 44 -14
26 -16 -27 -21 1 -6 33 9 18 17 29 17 24 0 -6 6 -1 14 9 9 13 11 27 5 42 -9
24 5 33 15 11 3 -7 4 -4 3 7 -2 14 -10 20 -25 19 -12 0 -21 4 -19 10 2 6 12
11 23 11 11 0 20 8 23 20 3 16 1 17 -12 7 -11 -10 -17 -9 -26 2 -9 11 -8 15 5
20 13 5 15 9 6 18 -7 7 -12 20 -12 29 0 10 -9 19 -20 21 -12 2 -20 7 -20 12 1
5 -4 13 -12 17 -10 7 -10 9 2 10 10 0 8 3 -5 9 -16 7 -16 9 -4 9 26 1 33 32 9
38 -11 3 -20 9 -20 14 0 5 12 4 26 -2 39 -14 39 -5 0 14 l-34 16 3 -27 c2 -15
1 -35 -1 -44 -5 -18 -8 -17 -51 22 -15 13 -14 15 8 21 13 4 18 7 12 8 -14 1
-18 41 -4 41 4 0 31 18 60 41 30 24 56 38 63 33 7 -4 10 -4 6 1 -9 9 -4 12
129 81 165 85 307 138 603 225 587 172 688 203 792 238 62 22 133 49 158 60
25 11 48 20 52 20 4 1 -25 -41 -65 -92z m-1785 -719 c6 -16 -20 -43 -30 -33
-4 4 -1 10 6 12 10 4 10 8 1 19 -9 11 -8 14 4 14 8 0 17 -6 19 -12z m28 -55
c0 -3 -7 -3 -15 0 -8 4 -17 2 -20 -3 -4 -6 -12 -10 -18 -10 -7 0 -4 7 6 15 17
12 47 11 47 -2z m30 -13 c0 -5 -4 -10 -10 -10 -5 0 -10 5 -10 10 0 6 5 10 10
10 6 0 10 -4 10 -10z m47 -172 c2 -17 0 -19 -7 -8 -5 8 -6 18 -4 22 8 12 10
10 11 -14z m3 -130 c29 18 36 15 15 -8 -10 -11 -22 -17 -28 -13 -5 3 -7 1 -4
-4 4 -6 -1 -17 -10 -24 -9 -8 -14 -9 -10 -3 4 7 0 17 -8 24 -8 7 -15 19 -15
26 0 12 4 12 20 2 16 -10 24 -10 40 0z m-67 -78 c-10 -9 -20 -15 -23 -13 -3 3
3 10 12 17 10 7 14 17 10 21 -4 5 -1 5 6 1 11 -6 10 -12 -5 -26z"/>
<path d="M10585 15177 c1 -11 7 -23 13 -25 17 -5 15 35 -1 41 -9 3 -13 -2 -12
-16z"/>
<path d="M22215 12853 c9 -21 24 -47 34 -58 11 -11 40 -52 65 -92 65 -101 84
-109 49 -21 -36 92 -124 208 -157 208 -4 0 1 -17 9 -37z"/>
<path d="M22575 12739 c4 -13 26 -60 50 -104 24 -44 55 -104 70 -132 14 -29
31 -53 37 -53 19 0 1 67 -41 150 -44 87 -70 125 -102 148 -20 14 -21 13 -14
-9z"/>
<path d="M23090 12675 c0 -16 38 -77 84 -135 29 -36 78 -102 109 -146 66 -95
87 -116 87 -88 0 46 -174 295 -244 348 -20 15 -36 24 -36 21z"/>
<path d="M23629 12382 c18 -22 49 -52 69 -68 71 -56 141 -126 178 -180 21 -30
41 -54 46 -54 31 0 -20 96 -94 176 -44 48 -138 119 -197 149 l-33 17 31 -40z"/>
<path d="M24040 12300 c12 -24 52 -80 87 -125 36 -44 68 -86 70 -92 3 -7 12
-13 20 -13 10 0 13 6 9 16 -3 9 -6 19 -6 24 0 18 -120 168 -159 200 l-43 33
22 -43z"/>
<path d="M24435 12211 c17 -18 85 -75 151 -127 67 -51 154 -128 194 -171 40
-43 78 -81 86 -86 29 -17 -8 52 -65 119 -84 99 -199 189 -336 264 l-60 33 30
-32z"/>
<path d="M26660 11780 c11 -16 44 -45 73 -66 28 -21 69 -53 90 -71 46 -40 63
-43 43 -5 -27 52 -141 146 -195 162 l-31 9 20 -29z"/>
<path d="M27265 11760 c17 -18 73 -60 125 -95 52 -34 122 -83 154 -109 33 -25
63 -46 68 -46 68 0 -242 242 -352 275 -25 7 -25 7 5 -25z"/>
<path d="M28282 11679 c5 -14 39 -27 178 -69 93 -28 195 -78 280 -138 78 -55
203 -174 231 -219 24 -38 39 -42 39 -10 0 82 -219 273 -421 366 -91 41 -173
66 -258 77 -44 6 -53 4 -49 -7z"/>
<path d="M22050 11641 c-95 -70 -234 -144 -387 -207 -101 -42 -246 -115 -239
-121 2 -2 42 5 88 16 141 33 415 161 522 243 43 33 75 68 76 81 0 13 -35 6
-60 -12z"/>
<path d="M28215 11404 c39 -38 105 -97 147 -131 42 -34 98 -89 125 -122 47
-58 73 -75 73 -47 0 53 -172 224 -323 320 -91 58 -97 53 -22 -20z"/>
<path d="M21160 11128 c0 -19 2 -20 10 -8 13 19 13 30 0 30 -5 0 -10 -10 -10
-22z"/>
<path d="M21514 11110 c0 -11 4 -20 9 -20 4 0 19 0 35 0 l27 1 -24 19 c-30 26
-49 25 -47 0z"/>
<path d="M21168 11093 c7 -3 16 -2 19 1 4 3 -2 6 -13 5 -11 0 -14 -3 -6 -6z"/>
<path d="M22490 11054 c-87 -23 -232 -79 -320 -124 -47 -24 -147 -90 -136 -90
26 0 165 49 271 95 66 29 162 67 212 85 51 18 101 39 110 46 16 12 15 13 -12
13 -16 0 -73 -11 -125 -25z"/>
<path d="M21490 11048 c0 -9 -6 -21 -14 -27 -8 -7 -12 -20 -9 -31 8 -32 38 -8
37 29 -1 31 -14 58 -14 29z"/>
<path d="M29007 10987 c-3 -12 -9 -47 -12 -77 -20 -168 -122 -328 -289 -454
-42 -31 -76 -61 -76 -67 0 -21 41 -6 108 41 179 126 320 378 296 529 -8 48
-20 60 -27 28z"/>
<path d="M23510 10951 c-96 -21 -238 -54 -315 -75 -140 -37 -438 -136 -431
-144 7 -7 285 57 471 108 99 27 247 65 329 86 82 20 163 42 180 50 l31 13 -45
0 c-25 0 -124 -18 -220 -38z"/>
<path d="M21770 10929 c0 -5 5 -7 10 -4 6 3 10 8 10 11 0 2 -4 4 -10 4 -5 0
-10 -5 -10 -11z"/>
<path d="M21840 10890 c0 -19 37 -43 45 -30 3 6 1 10 -6 10 -6 0 -18 8 -25 18
-11 14 -13 14 -14 2z"/>
<path d="M23945 10869 c-185 -34 -426 -104 -553 -160 -131 -58 -202 -93 -198
-96 6 -6 186 47 321 94 161 57 151 54 374 113 101 27 186 52 189 55 8 8 -77 4
-133 -6z"/>
<path d="M21900 10855 c-7 -9 -6 -16 3 -23 15 -13 32 -3 33 19 1 18 -22 21
-36 4z"/>
<path d="M22005 10860 c-3 -6 1 -7 9 -4 18 7 21 14 7 14 -6 0 -13 -4 -16 -10z"/>
<path d="M24885 10845 c-38 -7 -110 -25 -160 -38 -168 -46 -250 -67 -439 -112
-210 -50 -356 -92 -371 -107 -6 -6 -1 -8 15 -4 14 3 75 13 135 22 131 19 417
85 645 149 91 25 203 52 249 60 47 8 87 17 89 20 22 22 -75 28 -163 10z"/>
<path d="M21747 10830 c-3 -11 -1 -20 4 -20 5 0 9 9 9 20 0 11 -2 20 -4 20 -2
0 -6 -9 -9 -20z"/>
<path d="M21777 10760 c-8 -11 -17 -17 -22 -12 -5 4 -5 1 -1 -6 5 -8 16 -10
29 -6 24 7 38 24 31 36 -9 13 -22 9 -37 -12z"/>
<path d="M21930 10720 c0 -6 7 -10 15 -10 8 0 15 2 15 4 0 2 -7 6 -15 10 -8 3
-15 1 -15 -4z"/>
<path d="M21971 10706 c-7 -9 -18 -13 -24 -9 -6 4 -8 -2 -5 -15 4 -12 2 -20
-3 -16 -5 3 -9 0 -9 -5 0 -24 -19 -9 -25 19 -4 17 -11 30 -15 30 -5 0 -7 -6
-4 -13 6 -18 -21 -41 -40 -34 -15 6 -30 -19 -20 -34 7 -12 54 -11 54 1 0 6 5
10 11 10 18 0 2 -63 -21 -82 l-21 -17 21 -11 c12 -6 27 -9 35 -7 8 4 11 -1 8
-13 -5 -17 -2 -18 27 -10 35 10 51 20 32 20 -11 0 -52 35 -52 44 0 2 9 6 20 9
14 4 20 14 20 32 0 22 4 26 19 22 10 -2 25 -1 32 4 11 7 10 9 -3 9 -22 0 -23
9 -2 24 14 11 14 14 -3 35 -17 21 -20 21 -32 7z"/>
<path d="M25430 10694 c-113 -10 -277 -38 -410 -69 -164 -38 -370 -99 -409
-121 l-26 -14 25 5 c14 3 68 12 120 21 52 8 158 31 235 49 210 51 361 76 544
88 132 10 161 14 149 24 -16 13 -154 23 -228 17z"/>
<path d="M28195 10663 c-287 -106 -512 -174 -785 -234 -187 -41 -471 -111
-467 -115 6 -7 296 36 421 62 429 87 1002 282 911 310 -5 2 -41 -8 -80 -23z"/>
<path d="M26172 10625 c-146 -30 -245 -63 -412 -137 -208 -92 -265 -113 -452
-167 -95 -27 -198 -61 -228 -75 l-55 -26 60 4 c116 8 418 101 623 193 227 101
258 112 427 154 178 44 209 55 200 69 -9 14 -35 12 -163 -15z"/>
<path d="M21997 10606 c-4 -10 0 -12 14 -9 10 3 16 9 13 14 -8 13 -21 11 -27
-5z"/>
<path d="M22125 10509 c-4 -6 0 -9 11 -7 12 2 23 -7 32 -24 13 -28 27 -33 56
-22 23 9 20 29 -9 48 -22 15 -25 15 -34 -2 -9 -16 -10 -16 -16 1 -8 19 -30 23
-40 6z"/>
<path d="M22290 10505 c0 -9 6 -12 15 -9 8 4 15 7 15 9 0 2 -7 5 -15 9 -9 3
-15 0 -15 -9z"/>
<path d="M22256 10445 c3 -6 13 -16 24 -23 18 -11 20 -10 20 10 0 18 -6 23
-24 23 -13 0 -22 -5 -20 -10z"/>
<path d="M22031 10424 c0 -11 3 -14 6 -6 3 7 2 16 -1 19 -3 4 -6 -2 -5 -13z"/>
<path d="M26859 10426 c-7 -8 -152 -35 -354 -66 -475 -75 -985 -201 -1140
-284 l-50 -26 40 6 c42 7 118 27 360 93 218 60 537 127 789 166 330 51 402 71
381 105 -6 10 -18 13 -26 6z"/>
<path d="M28285 10223 c-11 -2 -64 -18 -118 -34 -215 -66 -397 -92 -752 -109
-287 -13 -468 -57 -573 -137 l-35 -26 -68 18 c-76 19 -124 16 -215 -16 -53
-17 -91 -37 -206 -103 l-47 -27 -81 15 c-45 9 -86 13 -91 10 -19 -11 -8 -34
19 -39 15 -4 46 -10 69 -16 75 -16 103 -11 182 35 129 76 188 99 267 104 50 3
86 0 119 -12 51 -17 62 -14 120 30 90 68 289 110 585 124 327 15 532 46 717
108 79 27 163 67 163 78 0 5 -28 3 -55 -3z"/>
<path d="M22882 10029 c2 -7 10 -15 17 -17 8 -3 12 1 9 9 -2 7 -10 15 -17 17
-8 3 -12 -1 -9 -9z"/>
<path d="M22957 10014 c-8 -8 3 -34 14 -34 11 0 12 27 0 34 -4 3 -11 3 -14 0z"/>
<path d="M22940 9924 c0 -8 5 -12 10 -9 6 4 8 11 5 16 -9 14 -15 11 -15 -7z"/>
<path d="M22805 9760 c3 -5 8 -10 11 -10 2 0 4 5 4 10 0 6 -5 10 -11 10 -5 0
-7 -4 -4 -10z"/>
<path d="M25180 9699 c-58 -16 -154 -38 -215 -49 -260 -47 -346 -54 -1100 -80
-470 -16 -695 -55 -860 -146 -47 -27 -82 -50 -78 -51 5 -2 83 19 174 46 262
78 397 94 959 111 638 20 872 48 1173 140 65 21 97 35 97 45 0 21 -29 18 -150
-16z"/>
<path d="M22744 9688 c3 -15 26 -23 26 -8 0 6 -4 9 -9 6 -5 -4 -12 -1 -14 4
-3 6 -4 5 -3 -2z"/>
<path d="M22650 9671 c0 -6 5 -13 10 -16 6 -3 10 1 10 9 0 9 -4 16 -10 16 -5
0 -10 -4 -10 -9z"/>
<path d="M22500 9551 c-23 -9 -24 -51 -1 -51 21 0 35 25 24 45 -5 7 -15 10
-23 6z"/>
<path d="M22616 9503 c-6 -14 -5 -15 5 -6 7 7 10 15 7 18 -3 3 -9 -2 -12 -12z"/>
<path d="M22700 9506 c0 -2 11 -6 25 -8 13 -3 22 -1 19 3 -5 9 -44 13 -44 5z"/>
<path d="M22450 9077 c0 -8 -5 -18 -10 -20 -6 -3 -5 -4 2 -3 7 2 21 -3 30 -12
16 -13 18 -13 24 1 3 9 1 24 -5 34 -7 12 -10 13 -11 4 0 -11 -3 -11 -15 -1
-12 10 -15 10 -15 -3z"/>
<path d="M22382 8951 c-17 -10 -4 -44 15 -37 8 3 17 6 19 6 2 0 4 7 4 16 0 8
-4 13 -9 10 -5 -4 -11 -2 -13 4 -1 5 -9 6 -16 1z"/>
<path d="M9574 12651 c-101 -61 -158 -251 -76 -251 11 0 13 9 8 38 -5 32 0 47
25 88 17 27 39 58 49 69 21 23 43 75 32 75 -4 0 -21 -9 -38 -19z"/>
<path d="M9179 12541 c-86 -46 -167 -206 -137 -269 22 -45 38 -39 38 14 0 57
26 116 79 176 39 44 66 87 59 94 -2 2 -20 -5 -39 -15z"/>
<path d="M8462 12228 c-87 -42 -184 -153 -168 -194 10 -26 35 -15 55 24 11 21
49 64 85 96 62 54 97 97 79 96 -4 -1 -27 -10 -51 -22z"/>
<path d="M7739 12080 c-69 -36 -139 -137 -139 -199 0 -46 22 -38 48 18 12 27
41 71 65 97 48 55 81 104 70 104 -5 -1 -24 -10 -44 -20z"/>
<path d="M7402 11942 c-48 -25 -102 -81 -123 -127 -29 -64 -23 -125 12 -125
16 0 19 7 19 40 0 51 17 84 70 135 86 83 96 117 22 77z"/>
<path d="M7024 11910 c-55 -28 -151 -115 -186 -169 -27 -43 -39 -111 -19 -111
4 0 27 29 50 64 23 36 70 90 105 121 61 53 102 102 94 111 -2 2 -22 -6 -44
-16z"/>
<path d="M6833 11885 c-193 -72 -503 -282 -503 -340 0 -34 30 -23 87 32 38 36
120 93 219 152 139 83 264 167 264 177 0 5 7 7 -67 -21z"/>
<path d="M4964 11800 c-228 -46 -567 -190 -531 -226 7 -7 20 -3 183 64 66 28
174 66 240 86 150 45 273 96 229 95 -16 0 -71 -9 -121 -19z"/>
<path d="M4460 11785 c-119 -47 -219 -109 -303 -185 -64 -59 -102 -113 -93
-136 5 -12 26 3 91 64 48 46 133 111 197 151 116 73 176 117 168 124 -3 2 -30
-6 -60 -18z"/>
<path d="M3998 11775 c-253 -77 -440 -176 -545 -288 -56 -59 -63 -74 -38 -84
10 -3 36 14 73 49 82 78 166 132 295 189 134 59 266 127 287 145 18 17 21 18
-72 -11z"/>
<path d="M5876 11715 c-67 -28 -156 -91 -203 -144 -38 -42 -73 -127 -73 -176
0 -56 25 -43 46 22 23 72 63 125 144 188 66 51 159 135 150 134 -3 0 -32 -11
-64 -24z"/>
<path d="M5355 11723 c-123 -16 -295 -117 -295 -172 0 -19 18 -12 84 33 35 24
91 53 126 64 58 20 150 67 150 77 0 5 -15 5 -65 -2z"/>
<path d="M2981 11678 c-70 -38 -86 -66 -86 -156 0 -92 25 -147 111 -254 30
-37 54 -77 54 -89 0 -36 30 -140 60 -205 52 -116 154 -244 250 -316 47 -35
131 -81 136 -75 3 3 -55 65 -129 138 -83 84 -147 157 -168 194 -42 72 -89 187
-89 217 0 20 1 20 19 4 21 -19 56 -18 56 0 0 6 -43 56 -96 111 -111 116 -159
198 -159 272 0 67 27 105 90 126 37 12 50 21 48 33 -5 26 -48 25 -97 0z"/>
<path d="M10735 11210 c3 -5 8 -10 11 -10 2 0 4 5 4 10 0 6 -5 10 -11 10 -5 0
-7 -4 -4 -10z"/>
<path d="M10527 11188 c9 -10 17 -18 19 -18 1 0 0 8 -3 18 -2 10 -11 19 -19
19 -11 0 -11 -4 3 -19z"/>
<path d="M10569 11158 c-7 -16 -5 -74 3 -79 6 -4 5 -14 -3 -27 -11 -18 -11
-24 -1 -34 11 -11 16 -9 28 6 8 11 14 28 14 38 0 10 3 18 8 18 4 0 13 4 21 9
11 7 6 15 -20 40 -30 27 -47 36 -50 29z"/>
<path d="M10520 11091 c0 -5 5 -13 10 -16 6 -3 10 -2 10 4 0 5 -4 13 -10 16
-5 3 -10 2 -10 -4z"/>
<path d="M10490 10961 c0 -39 -10 -62 -22 -55 -6 4 -5 10 3 15 10 6 6 9 -13 9
-18 0 -28 -5 -28 -14 0 -8 -9 -18 -20 -21 -15 -5 -20 -15 -20 -41 0 -27 4 -34
20 -34 11 0 20 6 20 14 0 7 6 19 14 25 11 10 16 8 24 -5 9 -16 11 -15 21 4 8
15 21 22 39 22 37 0 52 17 52 57 0 26 -4 33 -19 33 -11 0 -23 5 -26 10 -3 6
-15 10 -26 10 -14 0 -19 -7 -19 -29z m67 -38 c-3 -3 -11 -2 -17 2 -9 6 -9 10
1 16 14 8 27 -7 16 -18z"/>
<path d="M10236 10882 c-2 -4 -1 -14 5 -22 7 -12 9 -10 9 8 0 23 -5 28 -14 14z"/>
<path d="M10365 10850 c3 -5 8 -10 11 -10 2 0 4 5 4 10 0 6 -5 10 -11 10 -5 0
-7 -4 -4 -10z"/>
<path d="M10162 10763 c0 -10 -3 -26 -7 -35 -10 -25 12 -23 25 1 10 20 4 51
-10 51 -5 0 -8 -8 -8 -17z"/>
<path d="M10601 10724 c0 -11 3 -14 6 -6 3 7 2 16 -1 19 -3 4 -6 -2 -5 -13z"/>
<path d="M5126 10695 c4 -8 10 -15 16 -15 5 0 7 4 3 9 -3 5 3 12 12 14 11 3 8
5 -9 6 -20 1 -26 -3 -22 -14z"/>
<path d="M5055 10689 c-10 -16 3 -23 18 -11 8 7 17 9 20 5 4 -3 7 -1 7 5 0 15
-37 16 -45 1z"/>
<path d="M5010 10675 c0 -8 -4 -15 -9 -15 -5 0 -8 -11 -8 -25 0 -19 3 -23 12
-15 6 5 15 8 18 5 4 -3 5 -2 2 2 -3 3 0 12 6 19 12 15 5 44 -11 44 -5 0 -10
-7 -10 -15z"/>
<path d="M9975 10680 c-3 -5 1 -10 9 -10 8 0 18 5 21 10 3 6 -1 10 -9 10 -8 0
-18 -4 -21 -10z"/>
<path d="M10190 10680 c0 -5 -12 -10 -27 -10 -43 0 -57 -13 -44 -39 7 -12 16
-19 22 -16 5 4 9 -1 9 -9 0 -10 6 -13 15 -10 8 4 15 14 15 24 0 11 4 21 9 24
12 8 21 46 10 46 -5 0 -9 -4 -9 -10z"/>
<path d="M4767 10629 c4 -16 11 -19 29 -15 17 5 24 2 24 -9 0 -21 13 -19 28 6
8 12 9 18 3 14 -6 -3 -11 -1 -11 5 0 7 -8 9 -20 5 -11 -4 -20 -2 -20 4 0 6 -9
11 -19 11 -14 0 -18 -5 -14 -21z"/>
<path d="M10010 10622 c0 -12 19 -26 26 -19 2 2 -2 10 -11 17 -9 8 -15 8 -15
2z"/>
<path d="M4865 10600 c-1 -3 0 -13 4 -22 4 -13 10 -15 21 -8 13 9 13 10 0 10
-12 1 -11 4 4 15 18 13 17 14 -4 12 -12 -1 -23 -4 -25 -7z"/>
<path d="M4730 10590 c0 -5 7 -13 17 -18 14 -8 13 -11 -8 -18 -43 -14 -50 -13
-59 12 -5 13 -14 24 -20 24 -16 0 -12 -30 5 -36 8 -4 15 -15 15 -25 0 -14 9
-21 30 -25 31 -7 40 -30 19 -51 -6 -6 -9 -23 -5 -36 8 -32 42 -26 50 8 3 13
15 27 26 30 16 5 20 15 20 46 0 22 -4 38 -9 35 -4 -3 -7 6 -5 21 2 19 0 23 -9
14 -16 -16 -24 -14 -30 9 -5 20 -37 29 -37 10z"/>
<path d="M7780 10503 c0 -18 164 -185 260 -264 116 -96 272 -195 405 -258 71
-34 211 -91 222 -91 15 0 -152 108 -262 170 -203 112 -264 157 -479 348 -70
61 -131 112 -136 112 -6 0 -10 -8 -10 -17z"/>
<path d="M4636 10501 c-6 -10 30 -41 38 -34 3 4 6 12 6 19 0 13 -38 26 -44 15z"/>
<path d="M5650 10488 c0 -14 9 -19 340 -190 118 -61 227 -119 242 -129 14 -11
28 -19 31 -19 4 0 143 -83 299 -179 14 -9 58 -35 96 -58 39 -24 91 -59 116
-78 26 -19 48 -35 50 -35 4 0 235 -137 286 -169 100 -63 -185 169 -303 247
-27 18 -103 67 -170 109 -67 41 -133 83 -147 92 -14 8 -34 21 -45 27 -11 6
-81 46 -155 89 -235 136 -586 305 -630 305 -6 0 -10 -6 -10 -12z"/>
<path d="M4681 10444 c0 -11 3 -14 6 -6 3 7 2 16 -1 19 -3 4 -6 -2 -5 -13z"/>
<path d="M5214 10442 c-6 -4 -16 -17 -22 -29 -12 -23 -11 -23 36 -8 25 8 24 7
16 29 -7 18 -13 19 -30 8z"/>
<path d="M4850 10420 c0 -5 5 -10 11 -10 5 0 7 5 4 10 -3 6 -8 10 -11 10 -2 0
-4 -4 -4 -10z"/>
<path d="M8577 10423 c-16 -15 -5 -33 19 -33 39 0 186 -52 368 -130 149 -63
290 -110 333 -110 14 0 12 3 -7 13 -14 7 -43 25 -65 38 -22 14 -56 31 -75 39
-19 7 -107 44 -195 81 -88 37 -191 76 -229 88 -67 21 -136 27 -149 14z"/>
<path d="M4641 10384 c0 -11 3 -14 6 -6 3 7 2 16 -1 19 -3 4 -6 -2 -5 -13z"/>
<path d="M4685 10390 c-3 -5 -1 -10 4 -10 6 0 11 5 11 10 0 6 -2 10 -4 10 -3
0 -8 -4 -11 -10z"/>
<path d="M9940 10386 c0 -22 17 -28 40 -14 28 18 25 28 -10 28 -19 0 -30 -5
-30 -14z"/>
<path d="M4780 10380 c0 -5 5 -10 11 -10 5 0 7 5 4 10 -3 6 -8 10 -11 10 -2 0
-4 -4 -4 -10z"/>
<path d="M4462 10350 c0 -14 2 -19 5 -12 2 6 2 18 0 25 -3 6 -5 1 -5 -13z"/>
<path d="M4497 10353 c-4 -3 -7 -11 -7 -17 0 -6 5 -5 12 2 6 6 9 14 7 17 -3 3
-9 2 -12 -2z"/>
<path d="M4514 10326 c-8 -35 13 -53 36 -31 13 13 12 18 -7 37 l-22 21 -7 -27z"/>
<path d="M5125 10340 c4 -6 11 -8 16 -5 14 9 11 15 -7 15 -8 0 -12 -5 -9 -10z"/>
<path d="M9755 10321 c-3 -5 0 -13 6 -17 7 -4 9 -3 5 4 -3 6 3 12 16 15 23 4
23 4 1 6 -12 0 -24 -3 -28 -8z"/>
<path d="M9651 10304 c0 -11 3 -14 6 -6 3 7 2 16 -1 19 -3 4 -6 -2 -5 -13z"/>
<path d="M7214 10249 c-6 -10 23 -38 40 -39 21 0 314 -154 461 -241 136 -81
315 -175 315 -165 0 8 -175 139 -245 182 -250 158 -550 296 -571 263z"/>
<path d="M6762 10229 c2 -7 85 -53 183 -103 99 -51 218 -116 265 -145 103 -65
309 -175 316 -169 9 10 -162 137 -294 217 -230 140 -486 249 -470 200z"/>
<path d="M9636 10198 c3 -5 10 -6 15 -3 13 9 11 12 -6 12 -8 0 -12 -4 -9 -9z"/>
<path d="M4890 10160 c-12 -7 -12 -10 3 -16 21 -8 29 -3 19 13 -5 8 -13 9 -22
3z"/>
<path d="M4966 10138 c5 -7 3 -8 -6 -3 -7 4 -16 2 -21 -6 -9 -16 8 -30 28 -22
15 6 18 43 2 43 -5 0 -7 -5 -3 -12z"/>
<path d="M5013 10114 c-5 -15 11 -33 30 -34 13 0 7 18 -9 24 -8 3 -12 10 -9
16 3 5 4 10 0 10 -3 0 -8 -7 -12 -16z"/>
<path d="M9410 10039 c0 -5 5 -7 10 -4 6 3 10 8 10 11 0 2 -4 4 -10 4 -5 0
-10 -5 -10 -11z"/>
<path d="M5036 9985 c4 -8 8 -15 10 -15 2 0 4 7 4 15 0 8 -4 15 -10 15 -5 0
-7 -7 -4 -15z"/>
<path d="M9343 9953 c-7 -3 -13 -12 -13 -21 0 -15 2 -15 17 1 18 18 16 27 -4
20z"/>
<path d="M9020 9890 c-10 -18 -9 -19 14 -8 14 6 23 15 20 19 -9 15 -23 10 -34
-11z"/>
<path d="M9211 9894 c0 -11 3 -14 6 -6 3 7 2 16 -1 19 -3 4 -6 -2 -5 -13z"/>
<path d="M5903 9879 c-2 -23 3 -25 10 -4 4 8 3 16 -1 19 -4 3 -9 -4 -9 -15z"/>
<path d="M8959 9863 c-13 -16 -12 -17 4 -4 9 7 17 15 17 17 0 8 -8 3 -21 -13z"/>
<path d="M8880 9860 c0 -5 5 -10 11 -10 5 0 7 5 4 10 -3 6 -8 10 -11 10 -2 0
-4 -4 -4 -10z"/>
<path d="M6075 9830 c3 -5 10 -10 16 -10 5 0 9 5 9 10 0 6 -7 10 -16 10 -8 0
-12 -4 -9 -10z"/>
<path d="M8950 9829 c0 -5 5 -7 10 -4 6 3 10 8 10 11 0 2 -4 4 -10 4 -5 0 -10
-5 -10 -11z"/>
<path d="M9090 9811 c0 -13 27 -21 45 -15 8 4 12 10 9 15 -7 12 -54 12 -54 0z"/>
<path d="M6033 9775 c-17 -19 -16 -24 5 -22 10 0 19 9 19 19 2 21 -7 23 -24 3z"/>
<path d="M6795 9759 c-11 -16 -1 -19 13 -3 7 8 8 14 3 14 -5 0 -13 -5 -16 -11z"/>
<path d="M6716 9677 c-6 -31 5 -54 22 -43 14 8 12 64 -3 69 -8 4 -15 -5 -19
-26z"/>
<path d="M7023 9628 c4 -12 1 -28 -5 -35 -8 -10 -6 -13 6 -13 10 0 14 5 11 10
-3 6 0 10 8 10 19 0 30 27 15 36 -7 5 -8 2 -4 -7 4 -8 1 -6 -7 4 -20 24 -30
21 -24 -5z"/>
<path d="M6675 9620 c-3 -5 -1 -10 4 -10 6 0 11 5 11 10 0 6 -2 10 -4 10 -3 0
-8 -4 -11 -10z"/>
<path d="M8428 9599 c-10 -5 -18 -17 -18 -24 0 -20 16 -19 24 0 4 13 9 13 25
3 11 -7 18 -16 15 -20 -3 -4 2 -5 11 -2 9 4 15 15 13 28 -3 24 -42 32 -70 15z"/>
<path d="M7080 9590 c-12 -7 -12 -12 -3 -21 10 -10 14 -9 19 5 8 22 2 27 -16
16z"/>
<path d="M7610 9585 c0 -8 4 -15 10 -15 5 0 7 7 4 15 -4 8 -8 15 -10 15 -2 0
-4 -7 -4 -15z"/>
<path d="M8570 9571 c-19 -11 -39 -17 -44 -14 -4 3 -12 0 -16 -8 -10 -15 16
-38 42 -39 19 0 79 60 72 72 -7 11 -14 10 -54 -11z"/>
<path d="M7625 9530 c-3 -5 1 -10 9 -10 9 0 16 5 16 10 0 6 -4 10 -9 10 -6 0
-13 -4 -16 -10z"/>
<path d="M7753 9526 c5 -12 -1 -19 -19 -26 -20 -8 -23 -13 -15 -29 12 -21 48
-34 57 -20 3 5 1 9 -4 9 -5 0 -9 7 -9 15 0 8 3 15 7 15 13 0 5 43 -9 48 -10 3
-12 0 -8 -12z"/>
<path d="M7990 9515 c0 -9 5 -15 11 -13 6 2 11 8 11 13 0 5 -5 11 -11 13 -6 2
-11 -4 -11 -13z"/>
<path d="M8160 9516 c0 -8 -6 -17 -12 -19 -8 -4 -7 -6 3 -6 19 -1 33 25 19 34
-6 4 -10 0 -10 -9z"/>
<path d="M11240 12820 c0 -14 15 -19 29 -11 9 6 7 10 -8 14 -12 3 -21 1 -21
-3z"/>
<path d="M3760 1729 c-23 -19 -23 -20 -2 -9 12 6 27 8 32 5 6 -3 10 -2 10 4 0
19 -16 19 -40 0z"/>
<path d="M3818 1703 c7 -3 16 -2 19 1 4 3 -2 6 -13 5 -11 0 -14 -3 -6 -6z"/>
<path d="M3740 1666 c0 -2 7 -7 16 -10 8 -3 12 -2 9 4 -6 10 -25 14 -25 6z"/>
<path d="M3880 1525 c7 -9 15 -13 17 -11 7 7 -7 26 -19 26 -6 0 -6 -6 2 -15z"/>
<path d="M11990 17978 c0 -27 10 -42 28 -45 8 -2 12 9 12 32 0 28 -4 35 -20
35 -14 0 -20 -7 -20 -22z"/>
<path d="M12268 17993 c7 -3 16 -2 19 1 4 3 -2 6 -13 5 -11 0 -14 -3 -6 -6z"/>
<path d="M17740 17984 c0 -8 5 -12 10 -9 6 3 10 10 10 16 0 5 -4 9 -10 9 -5 0
-10 -7 -10 -16z"/>
<path d="M17770 17986 c0 -10 9 -16 21 -16 24 0 21 23 -4 28 -10 2 -17 -3 -17
-12z"/>
<path d="M18010 17949 c0 -5 5 -7 10 -4 6 3 10 8 10 11 0 2 -4 4 -10 4 -5 0
-10 -5 -10 -11z"/>
<path d="M11974 17835 c-4 -8 -3 -22 0 -31 5 -14 8 -14 21 0 8 8 15 22 15 30
0 20 -29 21 -36 1z"/>
<path d="M17915 17630 c-3 -5 -1 -10 4 -10 6 0 11 5 11 10 0 6 -2 10 -4 10 -3
0 -8 -4 -11 -10z"/>
<path d="M17860 17591 c0 -17 15 -19 28 -5 11 12 9 14 -8 14 -11 0 -20 -4 -20
-9z"/>
<path d="M17909 17309 c-13 -10 -18 -19 -11 -19 7 0 10 -4 7 -10 -3 -5 0 -10
7 -10 20 0 43 18 35 26 -4 4 -2 12 3 19 16 19 -15 14 -41 -6z"/>
<path d="M20270 17306 c0 -8 26 -48 58 -88 117 -150 154 -209 195 -313 40
-100 100 -220 104 -208 7 19 -36 182 -66 254 -36 86 -121 214 -201 302 -59 65
-90 83 -90 53z"/>
<path d="M18025 17180 c-3 -5 -1 -10 4 -10 6 0 11 5 11 10 0 6 -2 10 -4 10 -3
0 -8 -4 -11 -10z"/>
<path d="M18014 17124 c3 -9 6 -18 6 -20 0 -2 7 -4 15 -4 19 0 19 7 1 26 -19
19 -30 18 -22 -2z"/>
<path d="M19354 16938 c3 -24 8 -79 12 -123 3 -44 12 -94 19 -110 12 -30 12
-30 20 29 11 88 -19 246 -48 246 -5 0 -7 -18 -3 -42z"/>
<path d="M20010 16804 c0 -11 7 -55 14 -99 10 -51 13 -116 9 -180 -2 -55 -1
-118 5 -140 l9 -40 14 45 c21 71 18 281 -5 352 -20 61 -46 96 -46 62z"/>
<path d="M18132 16763 c-9 -17 -22 -23 -47 -23 -48 0 -49 -22 -2 -43 22 -9 41
-16 41 -15 1 2 8 15 15 29 7 14 11 37 9 50 l-3 24 -13 -22z"/>
<path d="M18145 16498 c-11 -30 -13 -68 -4 -68 5 0 9 7 9 16 0 9 5 12 12 8 8
-5 9 -2 4 12 -5 10 -9 25 -9 32 0 6 -2 12 -4 12 -2 0 -6 -6 -8 -12z"/>
<path d="M21040 16234 c0 -3 11 -20 24 -37 70 -93 103 -213 117 -417 5 -85 14
-171 18 -190 l8 -35 9 50 c17 94 9 312 -15 399 -39 145 -93 236 -141 236 -11
0 -20 -3 -20 -6z"/>
<path d="M20550 16151 c0 -5 7 -14 16 -22 54 -44 108 -161 124 -266 32 -219
55 -245 48 -55 -4 110 -8 136 -33 196 -32 78 -99 156 -133 156 -12 0 -22 -4
-22 -9z"/>
<path d="M20140 16026 c0 -8 10 -54 23 -103 19 -78 22 -111 21 -290 -1 -112 2
-200 6 -198 5 3 17 29 27 58 14 41 18 81 17 187 0 142 -16 231 -56 318 -20 42
-38 55 -38 28z"/>
<path d="M18250 15980 c0 -5 5 -10 11 -10 5 0 7 5 4 10 -3 6 -8 10 -11 10 -2
0 -4 -4 -4 -10z"/>
<path d="M10828 15964 c-2 -11 -11 -19 -22 -19 -27 0 -31 -21 -8 -34 17 -9 23
-6 36 14 12 18 14 31 7 42 -8 15 -9 15 -13 -3z"/>
<path d="M19358 15866 c-4 -65 -13 -100 -36 -153 -36 -80 -46 -113 -35 -113
19 1 53 39 79 90 42 85 46 260 5 260 -4 0 -11 -38 -13 -84z"/>
<path d="M19000 15770 c0 -27 -7 -91 -16 -141 -20 -119 -15 -138 20 -71 42 83
50 262 11 262 -11 0 -15 -13 -15 -50z"/>
<path d="M10655 15680 c-7 -12 2 -30 16 -30 5 0 9 9 9 20 0 21 -15 27 -25 10z"/>
<path d="M18300 15539 c0 -18 2 -19 15 -9 8 7 15 16 15 21 0 5 -7 9 -15 9 -9
0 -15 -9 -15 -21z"/>
<path d="M18355 15520 c4 -6 11 -8 16 -5 14 9 11 15 -7 15 -8 0 -12 -5 -9 -10z"/>
<path d="M18280 15460 c0 -5 5 -10 10 -10 6 0 10 5 10 10 0 6 -4 10 -10 10 -5
0 -10 -4 -10 -10z"/>
<path d="M18388 15383 c6 -2 18 -2 25 0 6 3 1 5 -13 5 -14 0 -19 -2 -12 -5z"/>
<path d="M18384 15313 c3 -6 0 -13 -6 -16 -7 -2 -11 -7 -8 -10 3 -3 12 -2 20
3 13 8 13 11 1 22 -8 8 -11 8 -7 1z"/>
<path d="M21490 15309 c0 -6 9 -23 19 -38 30 -41 60 -142 77 -254 16 -101 15
-187 -4 -415 -4 -46 -5 -85 -1 -87 13 -8 49 126 60 220 28 256 -49 585 -138
585 -7 0 -13 -5 -13 -11z"/>
<path d="M21240 15097 c0 -2 12 -37 26 -78 38 -108 44 -272 16 -395 -23 -96
-52 -276 -46 -283 5 -5 42 81 60 139 57 179 68 333 34 466 -20 76 -60 154 -80
154 -6 0 -10 -1 -10 -3z"/>
<path d="M18375 15050 c3 -5 8 -10 11 -10 2 0 4 5 4 10 0 6 -5 10 -11 10 -5 0
-7 -4 -4 -10z"/>
<path d="M20690 15036 c0 -3 13 -25 29 -48 78 -115 104 -242 95 -464 -8 -183
2 -212 31 -92 25 98 25 299 1 388 -34 124 -93 220 -137 220 -11 0 -19 -2 -19
-4z"/>
<path d="M10650 14919 c0 -5 -4 -7 -10 -4 -11 7 -14 -8 -4 -18 7 -7 44 14 44
25 0 5 -7 8 -15 8 -8 0 -15 -5 -15 -11z"/>
<path d="M10700 14901 c0 -12 6 -21 16 -21 9 0 14 7 12 17 -5 25 -28 28 -28 4z"/>
<path d="M20120 14846 c0 -7 11 -38 24 -67 13 -30 35 -94 50 -144 47 -163 56
-232 56 -455 0 -115 4 -211 9 -214 5 -3 17 46 26 110 24 154 16 339 -19 479
-26 108 -85 256 -112 286 -20 22 -34 24 -34 5z"/>
<path d="M18445 14704 c-9 -9 -13 -19 -10 -23 4 -3 12 1 18 10 7 9 19 18 27
22 12 4 12 6 -2 6 -9 1 -24 -6 -33 -15z"/>
<path d="M19550 14686 c0 -2 11 -46 25 -98 34 -129 47 -295 34 -433 -5 -60 -9
-150 -7 -200 l3 -90 18 75 c31 132 40 229 34 385 -6 163 -31 284 -68 336 -17
25 -39 39 -39 25z"/>
<path d="M18558 14494 c-4 -3 -14 -7 -25 -8 -10 -2 -17 -10 -15 -19 1 -8 -2
-18 -7 -22 -16 -9 -1 -35 20 -35 10 0 19 -5 19 -11 0 -5 -4 -7 -10 -4 -5 3
-10 2 -10 -3 0 -21 14 -19 39 4 14 14 36 27 48 30 14 4 20 11 16 18 -8 12 -10
18 -12 41 -1 15 -51 22 -63 9z m37 -54 c3 -5 -1 -10 -10 -10 -9 0 -13 5 -10
10 3 6 8 10 10 10 2 0 7 -4 10 -10z"/>
<path d="M18765 14384 c3 -60 2 -180 -2 -267 -4 -86 -5 -157 -2 -157 3 0 16
42 29 93 41 154 30 419 -18 435 -11 3 -12 -17 -7 -104z"/>
<path d="M18596 14209 c5 -8 3 -11 -7 -7 -17 6 -43 -38 -28 -48 5 -3 9 0 9 5
0 6 6 11 14 11 8 0 21 7 30 15 8 9 18 16 21 15 40 -2 29 10 -15 16 -24 4 -30
2 -24 -7z"/>
<path d="M21090 13897 c0 -2 14 -40 30 -86 62 -171 73 -325 35 -531 -18 -94
-33 -220 -28 -220 2 0 17 28 33 63 48 103 78 335 61 474 -19 155 -76 303 -116
303 -8 0 -15 -1 -15 -3z"/>
<path d="M18751 13664 c0 -11 3 -14 6 -6 3 7 2 16 -1 19 -3 4 -6 -2 -5 -13z"/>
<path d="M20576 13642 c-3 -5 6 -44 20 -87 37 -117 50 -271 36 -424 -14 -151
-15 -194 -3 -186 18 11 41 102 50 198 16 165 -9 375 -55 474 -15 31 -37 43
-48 25z"/>
<path d="M18796 13631 c-4 -6 -5 -15 -2 -20 4 -5 0 -12 -6 -14 -7 -3 -3 -6 10
-6 23 -1 28 14 13 38 -6 9 -11 10 -15 2z"/>
<path d="M18910 13389 c0 -5 5 -7 10 -4 6 3 10 8 10 11 0 2 -4 4 -10 4 -5 0
-10 -5 -10 -11z"/>
<path d="M18943 13273 c-7 -2 -13 -11 -13 -18 0 -18 57 -17 64 2 3 7 1 13 -3
13 -5 0 -15 2 -23 4 -7 3 -19 2 -25 -1z"/>
<path d="M20161 13138 c20 -76 24 -167 10 -233 -25 -112 -32 -158 -29 -178 6
-36 54 68 72 156 20 95 20 134 0 217 -16 71 -37 110 -58 110 -11 0 -10 -14 5
-72z"/>
<path d="M19435 13138 c4 -13 13 -32 20 -44 7 -11 23 -52 35 -90 18 -56 24
-103 29 -249 6 -164 8 -177 19 -140 51 163 31 394 -44 508 -28 43 -70 54 -59
15z"/>
<path d="M19072 13128 c30 -23 48 -23 48 1 0 15 -7 19 -36 18 l-35 -1 23 -18z"/>
<path d="M19130 13105 c-10 -12 -10 -15 3 -15 19 0 31 16 18 24 -5 3 -14 -1
-21 -9z"/>
<path d="M19141 13050 c-13 -11 -19 -20 -14 -20 6 0 18 9 28 20 23 25 17 25
-14 0z"/>
<path d="M19200 13001 c0 -10 19 -25 25 -20 1 2 -3 10 -11 17 -8 7 -14 8 -14
3z"/>
<path d="M19158 12853 c7 -3 16 -2 19 1 4 3 -2 6 -13 5 -11 0 -14 -3 -6 -6z"/>
<path d="M25755 1991 c11 -35 74 -137 165 -266 333 -475 534 -800 1026 -1657
l39 -67 713 -1 713 0 -6 23 c-4 12 -44 98 -90 192 -140 285 -346 574 -574 802
-316 317 -633 498 -1117 636 -136 39 -512 135 -689 177 -46 10 -54 17 -105 86
-65 90 -87 111 -75 75z"/>
</g>
</svg>
