<?xml version="1.0" standalone="no"?>
<!DOCTYPE svg PUBLIC "-//W3C//DTD SVG 20010904//EN"
 "http://www.w3.org/TR/2001/REC-SVG-20010904/DTD/svg10.dtd">
<svg version="1.0" xmlns="http://www.w3.org/2000/svg"
 width="512.000000pt" height="486.000000pt" viewBox="0 0 512.000000 486.000000"
 preserveAspectRatio="xMidYMid meet">

<g transform="translate(0.000000,486.000000) scale(0.100000,-0.100000)"
fill="#000000" stroke="none">
<path d="M2318 4853 c7 -3 16 -2 19 1 4 3 -2 6 -13 5 -11 0 -14 -3 -6 -6z"/>
<path d="M2155 4821 c-528 -136 -962 -540 -1134 -1056 -55 -165 -72 -273 -78
-477 l-5 -188 -108 -59 c-147 -82 -249 -162 -376 -294 -416 -429 -555 -1033
-373 -1621 35 -114 47 -125 17 -16 -29 108 -36 353 -14 473 46 242 159 451
334 619 287 274 684 377 1069 277 231 -60 463 -214 608 -404 32 -41 60 -75 63
-75 3 0 25 11 48 25 l43 25 -6 83 c-7 95 4 139 49 207 36 54 96 101 161 125
l47 18 0 61 0 62 -94 12 c-440 55 -820 387 -942 823 -22 77 -27 122 -31 253
-6 178 3 249 48 391 109 344 372 611 714 727 131 44 113 48 -40 9z"/>
<path d="M2900 4821 c122 -40 192 -74 286 -136 253 -169 427 -427 488 -727 21
-102 21 -341 1 -438 -48 -228 -150 -416 -314 -581 -176 -177 -403 -289 -651
-322 l-95 -13 -3 -60 -3 -60 58 -18 c45 -14 70 -31 118 -80 81 -80 100 -134
92 -253 l-6 -83 43 -25 c23 -14 45 -25 48 -25 2 0 33 37 69 82 264 336 702
498 1114 412 226 -47 413 -149 575 -313 176 -177 275 -369 316 -608 22 -126
15 -343 -14 -458 -11 -44 -19 -81 -17 -83 6 -6 54 155 75 247 96 436 13 873
-240 1256 -133 202 -381 425 -591 530 l-67 34 -5 188 c-3 139 -10 214 -26 286
-69 322 -216 593 -445 823 -218 217 -469 359 -759 429 -134 33 -153 31 -47 -4z"/>
<path d="M2415 3624 c-268 -41 -459 -112 -650 -240 -135 -90 -130 -85 -110
-125 33 -62 98 -153 153 -211 l54 -57 59 44 c381 280 880 285 1261 12 l77 -55
53 56 c55 58 121 149 153 211 20 40 23 37 -110 126 -157 104 -331 177 -513
215 -94 20 -357 35 -427 24z"/>
<path d="M1132 2402 c-35 -24 -40 -344 -7 -510 94 -484 443 -903 901 -1082 19
-8 26 0 63 64 42 74 101 222 101 255 0 14 -24 31 -84 60 -124 62 -211 123
-304 214 -143 142 -237 301 -290 495 -24 89 -26 112 -26 283 l0 187 -75 17
c-88 19 -260 30 -279 17z"/>
<path d="M3735 2390 c-49 -11 -93 -20 -97 -20 -5 0 -5 -66 -2 -147 5 -117 3
-167 -10 -238 -42 -223 -131 -396 -285 -558 -96 -100 -188 -168 -316 -231
l-104 -52 30 -89 c26 -79 96 -225 118 -248 12 -13 261 117 348 181 366 272
577 662 600 1112 5 103 -9 285 -24 300 -14 14 -175 8 -258 -10z"/>
<path d="M2258 1930 l-46 -29 38 -98 c63 -161 83 -279 77 -463 -6 -172 -23
-253 -82 -398 -104 -256 -341 -497 -588 -600 -181 -76 -362 -106 -543 -91
-175 15 -281 46 -441 128 -96 49 -135 78 -265 191 l-63 55 54 -63 c236 -276
568 -463 956 -539 125 -24 415 -24 540 0 233 46 445 129 607 239 l57 38 71
-46 c93 -60 252 -135 365 -173 611 -202 1305 -9 1728 482 l52 61 -94 -83
c-146 -128 -305 -213 -489 -263 -99 -26 -361 -37 -466 -18 -404 72 -740 357
-875 744 -88 252 -82 543 19 799 l38 98 -36 23 c-21 12 -43 26 -50 30 -7 4
-28 -6 -53 -28 -61 -52 -106 -70 -187 -74 -96 -6 -153 12 -219 65 -29 24 -54
43 -55 43 -2 0 -24 -14 -50 -30z"/>
</g>
</svg>
