<?xml version="1.0" standalone="no"?>
<!DOCTYPE svg PUBLIC "-//W3C//DTD SVG 20010904//EN"
 "http://www.w3.org/TR/2001/REC-SVG-20010904/DTD/svg10.dtd">
<svg version="1.0" xmlns="http://www.w3.org/2000/svg"
 width="1920.000000pt" height="1080.000000pt" viewBox="0 0 1920.000000 1080.000000"
 preserveAspectRatio="xMidYMid meet">

<g transform="translate(0.000000,1080.000000) scale(0.100000,-0.100000)"
fill="#000000" stroke="none">
<path d="M0 5400 l0 -5400 9600 0 9600 0 0 5400 0 5400 -9600 0 -9600 0 0
-5400z m3865 2020 c516 -49 981 -302 1306 -710 78 -98 205 -307 224 -367 l6
-23 -159 0 -160 0 -36 61 c-169 284 -454 526 -764 649 -194 76 -378 111 -592
111 -151 0 -257 -13 -395 -47 -406 -103 -767 -375 -973 -734 -86 -150 -161
-353 -191 -512 l-8 -48 1713 0 1713 0 8 -37 c16 -80 7 -382 -15 -509 -107
-601 -475 -1098 -1010 -1364 -567 -281 -1227 -260 -1772 58 -321 187 -568 453
-735 791 -38 77 -95 213 -95 227 0 2 65 4 145 4 l145 0 17 -42 c83 -208 264
-446 456 -600 230 -183 499 -299 785 -338 106 -14 318 -14 424 0 562 76 1043
447 1252 968 67 167 115 378 116 510 l0 52 -1722 0 -1721 0 7 113 c28 467 185
847 488 1184 386 429 969 657 1543 603z m7680 0 c401 -38 785 -205 1077 -468
324 -291 522 -651 600 -1086 30 -171 30 -441 0 -612 -77 -433 -281 -801 -600
-1088 -83 -73 -238 -186 -257 -186 -7 0 -31 64 -55 142 l-42 142 28 20 c376
272 626 708 660 1150 l7 86 -1582 0 -1581 0 0 -42 c0 -24 7 -86 15 -138 66
-412 275 -765 602 -1019 45 -35 80 -68 78 -75 -2 -6 -20 -67 -40 -136 -20 -69
-41 -129 -45 -134 -11 -11 -130 69 -243 166 -491 419 -730 1064 -631 1703 57
370 210 688 466 972 386 429 969 657 1543 603z m3840 0 c630 -60 1182 -425
1482 -980 40 -74 125 -279 138 -332 l7 -28 -140 0 -140 0 -12 33 c-145 373
-385 654 -717 840 -241 135 -486 198 -773 198 -158 0 -253 -12 -405 -51 -729
-184 -1234 -892 -1174 -1647 45 -554 353 -1026 841 -1286 394 -210 900 -237
1322 -70 357 141 654 412 825 750 53 107 96 214 116 294 9 35 18 72 21 82 5
16 -37 17 -780 17 l-786 0 0 140 0 140 940 0 940 0 -6 -77 c-49 -673 -438
-1258 -1032 -1553 -567 -281 -1227 -260 -1772 58 -391 228 -683 586 -829 1018
-156 463 -123 978 90 1408 90 181 167 294 301 443 386 429 969 657 1543 603z
m-8417 -209 c18 -61 32 -116 32 -124 0 -9 -26 -25 -64 -41 -210 -84 -433 -244
-588 -420 -444 -510 -517 -1254 -179 -1841 140 -243 329 -429 603 -594 l37
-22 15 53 c27 89 106 359 126 428 21 74 89 303 184 625 57 196 131 448 186
635 10 36 39 133 64 215 24 83 67 231 96 330 71 249 71 246 83 242 10 -3 59
-153 101 -312 8 -27 31 -106 51 -175 20 -69 61 -208 90 -310 30 -102 64 -219
76 -260 12 -41 39 -136 61 -210 22 -74 69 -234 103 -355 35 -121 82 -283 105
-360 22 -77 59 -203 81 -280 22 -77 47 -163 56 -192 l15 -52 37 19 c112 58
300 215 403 338 345 411 461 929 326 1447 -116 446 -445 834 -864 1024 -49 22
-90 44 -92 50 -4 12 56 223 66 233 21 21 264 -98 415 -202 423 -290 697 -719
789 -1234 30 -171 30 -441 0 -612 -92 -515 -366 -944 -790 -1235 -162 -112
-457 -249 -480 -224 -5 6 -127 417 -271 915 -144 498 -265 914 -269 924 -7 17
-112 -329 -489 -1624 -36 -124 -69 -228 -72 -232 -4 -4 -49 8 -101 26 -537
190 -955 617 -1139 1162 -194 574 -93 1219 265 1699 196 263 460 476 739 597
44 19 91 40 105 46 52 22 55 18 88 -97z"/>
<path d="M11315 7163 c-762 -38 -1370 -577 -1499 -1330 l-5 -33 1569 0 1570 0
-6 33 c-80 464 -340 853 -735 1098 -204 126 -467 212 -694 225 -49 2 -103 6
-120 7 -16 1 -52 1 -80 0z"/>
</g>
</svg>
